<svg preserveAspectRatio="none" width="100%" height="100%" overflow="visible" style="display: block;" viewBox="0 0 43.4717 115.395" fill="none" xmlns="http://www.w3.org/2000/svg">
<g id="Vector" opacity="0.5" style="mix-blend-mode:multiply">
<path d="M35.9459 94.2961C28.1389 83.5574 17.4397 68.8551 24.8498 41.6659C27.4903 31.9664 26.7805 23.3867 22.7206 16.1765C16.7299 5.52645 5.30566 1.22452 1.32205 0C0.703905 0.370578 0.223126 0.998951 0.0628661 1.78844C-0.250023 3.27881 0.635223 4.74501 2.04704 5.08337C2.17677 5.11559 15.4555 8.34607 21.4919 19.0848C24.7811 24.9415 25.3229 32.055 23.0945 40.24C14.9594 70.1037 27.0629 86.7395 35.0683 97.7521C39.9448 104.455 42.6158 108.426 40.9903 112.156C40.4942 113.308 40.8071 114.613 41.6771 115.395C42.0053 115.129 42.2952 114.799 42.486 114.372C45.5081 107.435 41.0818 101.345 35.9612 94.3041L35.9459 94.2961Z" fill="var(--fill-0, #569644)"/>
</g>
</svg>
