<svg preserveAspectRatio="none" width="100%" height="100%" overflow="visible" style="display: block;" viewBox="0 0 19.1999 143.458" fill="none" xmlns="http://www.w3.org/2000/svg">
<g id="Vector" opacity="0.5" style="mix-blend-mode:multiply">
<path d="M17.1145 75.5135C14.0619 60.8193 10.5744 50.9023 7.77364 42.9348C2.1569 26.9597 0.271935 21.5782 12.7035 4.43495C13.5812 3.22654 13.3599 1.49449 12.2151 0.568045C11.2078 -0.245616 9.8265 -0.165053 8.91073 0.680832C9.9486 1.62339 10.1318 3.27488 9.28467 4.43495C-3.15458 21.5782 -1.26198 26.9597 4.35476 42.9348C7.1555 50.9023 10.6431 60.8193 13.6956 75.5135C19.1826 101.881 12.6807 113.014 7.9339 121.143C4.2937 127.378 2.08822 131.149 5.65973 139.567C6.14051 140.695 5.82762 141.976 4.9958 142.757C5.46895 143.192 6.0642 143.458 6.68998 143.458C7.04865 143.458 7.40733 143.378 7.75075 143.217C9.07098 142.596 9.65861 140.961 9.07099 139.575C5.50711 131.157 7.70496 127.386 11.3452 121.151C16.0919 113.022 22.5939 101.897 17.1069 75.5215L17.1145 75.5135Z" fill="var(--fill-0, #63AD51)"/>
</g>
</svg>
