<svg preserveAspectRatio="none" width="100%" height="100%" overflow="visible" style="display: block;" viewBox="0 0 46.7226 116.436" fill="none" xmlns="http://www.w3.org/2000/svg">
<path id="Vector" d="M43.3636 116.436C42.9973 116.436 42.631 116.355 42.2724 116.186C40.9597 115.55 40.3874 113.914 40.9903 112.529C42.6158 108.799 39.9371 104.819 35.0683 98.1246C27.0629 87.112 14.9594 70.4762 23.0945 40.6125C25.3229 32.4275 24.7887 25.314 21.4919 19.4573C15.4555 8.72662 2.17677 5.48808 2.04704 5.45586C0.635223 5.12556 -0.250023 3.65131 0.0628661 2.16094C0.375755 0.670567 1.77231 -0.263934 3.18412 0.066364C3.81753 0.219429 18.8057 3.86882 25.9869 16.6296C30.0392 23.8398 30.7565 32.4195 28.116 42.1189C20.7059 69.3001 31.4052 84.0104 39.2121 94.7491C44.3328 101.79 48.7591 107.88 45.737 114.817C45.2944 115.824 44.3481 116.42 43.3636 116.42V116.436Z" fill="var(--fill-0, #569644)"/>
</svg>
