<svg preserveAspectRatio="none" width="100%" height="100%" overflow="visible" style="display: block;" viewBox="0 0 50.9871 44.0433" fill="none" xmlns="http://www.w3.org/2000/svg">
<path id="Vector" d="M37.1307 36.5194C39.0635 33.925 46.3064 27.5389 48.0258 25.0668C49.7452 22.591 39.9587 22.7726 32.0403 29.0437C32.0403 29.0437 39.7874 7.32457 39.781 0.849599C39.7745 -5.62537 25.2143 27.0349 25.2143 27.0349C25.2143 27.0349 23.1943 -0.577341 21.5977 2.96962C20.0011 6.51659 19.3482 29.7961 19.3482 29.7961C14.5196 22.6614 5.82874 17.2353 8.01034 21.1603C10.1919 25.089 14.9462 32.2571 15.3405 35.2741C8.02973 33.2875 -2.87182 37.7684 0.699543 38.8396C4.27414 39.9107 15.1983 38.7098 16.197 44.0433H38.1908C40.8281 38.3503 47.5507 39.9107 50.3593 37.9463C53.1679 35.982 46.1609 32.5907 37.1307 36.5194Z" fill="var(--fill-0, #669E51)"/>
</svg>
