<svg preserveAspectRatio="none" width="100%" height="100%" overflow="visible" style="display: block;" viewBox="0 0 147 208" fill="none" xmlns="http://www.w3.org/2000/svg">
<g id="Isolation_Mode" clip-path="url(#clip0_0_9)">
<g id="Group">
<path id="Vector" d="M74.9382 45.7673V193.06C74.9382 194.136 75.4995 195.014 76.1893 195.014C76.8792 195.014 77.4404 194.136 77.4404 193.06V44.5154C76.7389 45.1589 75.8736 45.5684 74.9382 45.7556V45.7673Z" fill="var(--fill-0, #659928)"/>
<path id="Vector_2" d="M66.5779 195.014C66.5779 195.014 65.549 174.096 52.6403 158.606C39.7316 143.116 7.22606 156.535 5.93987 158.606C4.65367 160.665 0.257238 158.852 5.93987 151.236C11.6108 143.631 35.6158 128.656 55.9961 140.016C74.9733 150.592 72.7634 195.014 72.7634 195.014H66.5663H66.5779Z" fill="var(--fill-0, #659928)"/>
<path id="Vector_3" d="M77.4053 195.014C77.4053 195.014 69.922 144.672 89.2734 120.911C108.625 97.1618 137.529 111.365 144.241 133.558C150.952 155.763 143.726 146.462 140.113 140.788C136.5 135.114 120.247 117.706 102.182 136.998C84.1169 156.29 85.1459 195.014 85.1459 195.014H77.4053Z" fill="var(--fill-0, #659928)"/>
<path id="Vector_4" d="M4.51336 119.613C4.51336 119.613 32.108 107.282 53.5523 125.813C74.9967 144.345 76.7856 195.014 76.7856 195.014H80.6559C80.6559 195.014 91.951 134.857 58.7205 113.166C25.49 91.476 0 117.811 0 120.911C0 124.011 4.51336 119.624 4.51336 119.624V119.613Z" fill="var(--fill-0, #7BC928)"/>
<path id="Vector_5" d="M85.672 195.014C85.672 195.014 83.3452 154.476 100.381 143.116C117.418 131.756 133.413 157.518 131.601 159.226C129.8 160.934 118.447 143.116 105.538 156.547C92.6292 169.978 94.1843 195.388 94.1843 195.388L85.672 195.014Z" fill="var(--fill-0, #7BC928)"/>
<path id="Vector_6" d="M90.8402 36.8408C90.1737 40.9121 86.3268 43.6731 82.2578 42.9945C78.1888 42.3277 75.4293 38.4787 76.0958 34.419C76.7623 30.3477 80.6091 27.5867 84.6782 28.2536C88.7472 28.9204 91.5067 32.7694 90.8402 36.8408Z" fill="var(--fill-0, #A45CEA)"/>
<path id="Vector_7" d="M74.4588 38.7945C73.7923 42.8659 69.9454 45.6269 65.8764 44.9483C61.8074 44.2815 59.0479 40.4324 59.7144 36.3728C60.3808 32.3015 64.2277 29.5405 68.2968 30.2073C72.3658 30.8742 75.1253 34.7232 74.4588 38.7945Z" fill="var(--fill-0, #A45CEA)"/>
<path id="Vector_8" d="M66.7533 26.0073C66.4026 28.1249 64.4031 29.5639 62.2867 29.2129C60.1704 28.8619 58.7322 26.8731 59.083 24.7438C59.4337 22.6262 61.4332 21.1872 63.5496 21.5382C65.6659 21.8892 67.1041 23.8898 66.7533 26.0073Z" fill="var(--fill-0, #A45CEA)"/>
<path id="Vector_9" d="M72.2372 16.5544C71.8864 18.6719 69.887 20.1109 67.7706 19.7599C65.6542 19.409 64.216 17.4084 64.5668 15.2908C64.9176 13.1733 66.917 11.7343 69.0334 12.0853C71.1498 12.4362 72.588 14.4368 72.2372 16.5544Z" fill="var(--fill-0, #A45CEA)"/>
<path id="Vector_10" d="M72.7517 8.7276C72.5178 10.1666 71.1615 11.1259 69.735 10.892C68.3085 10.658 67.3263 9.30086 67.5718 7.87356C67.8057 6.43456 69.162 5.47522 70.5885 5.70921C72.0267 5.94319 72.9972 7.3003 72.7517 8.7276Z" fill="var(--fill-0, #A45CEA)"/>
<path id="Vector_11" d="M77.7327 3.05349C77.4989 4.49249 76.1425 5.46352 74.716 5.21784C73.2895 4.98386 72.3073 3.62675 72.5529 2.19945C72.7867 0.760448 74.1431 -0.210586 75.5696 0.0350976C77.0078 0.269082 77.9783 1.62619 77.7327 3.05349Z" fill="var(--fill-0, #A45CEA)"/>
<path id="Vector_12" d="M83.9065 13.2201C83.4388 16.0513 80.7728 17.9583 77.9549 17.4903C75.137 17.0223 73.2194 14.3666 73.6871 11.5354C74.1548 8.7159 76.8207 6.79723 79.6386 7.2652C82.4566 7.73317 84.3742 10.4006 83.9065 13.2201Z" fill="var(--fill-0, #A45CEA)"/>
<path id="Vector_13" d="M88.0457 23.0942C87.6949 25.2118 85.6954 26.6508 83.5791 26.2998C81.4627 25.9488 80.0245 23.9483 80.3753 21.8307C80.726 19.7131 82.7255 18.2741 84.8419 18.6251C86.9582 18.9761 88.3964 20.965 88.0457 23.0942Z" fill="var(--fill-0, #A45CEA)"/>
<path id="Vector_14" d="M78.6097 25.7148C78.1537 28.4992 75.5228 30.3828 72.74 29.9265C69.9571 29.4703 68.0746 26.8497 68.5306 24.0652C68.9866 21.2808 71.6175 19.3973 74.4003 19.8535C77.1832 20.3098 79.0657 22.9421 78.6097 25.7265V25.7148Z" fill="var(--fill-0, #A45CEA)"/>
<path id="Vector_15" d="M74.1899 45.8374C74.1899 45.8374 73.196 48.4581 71.6526 49.7567C70.1091 51.0436 67.8641 51.301 67.8641 51.301C67.8641 51.301 70.191 52.5528 72.5763 51.6753C74.9499 50.7979 76.201 47.8029 76.201 47.8029C76.201 47.8029 76.6102 50.7979 79.0306 51.9912C81.451 53.1845 84.2806 51.2191 84.2806 51.2191C84.2806 51.2191 80.3285 51.5116 79.1125 48.7155C77.9081 45.9193 77.9666 44.0475 77.9666 44.0475L74.1899 45.8374Z" fill="var(--fill-0, #659928)"/>
</g>
<path id="Vector_16" d="M132.466 199.775H120.037C120.423 199.179 120.656 198.465 120.656 197.693C120.656 195.575 118.938 193.856 116.821 193.856H38.3753C36.2589 193.856 34.5401 195.575 34.5401 197.693C34.5401 199.811 36.2589 201.53 38.3753 201.53H90.0802C89.6125 202.197 89.3202 203.016 89.3202 203.894C89.3202 206.163 91.1676 208.012 93.436 208.012H132.466C134.734 208.012 136.582 206.163 136.582 203.894C136.582 201.624 134.734 199.775 132.466 199.775Z" fill="var(--fill-0, #A08878)"/>
</g>
<defs>
<clipPath id="clip0_0_9">
<rect width="147" height="208" fill="white"/>
</clipPath>
</defs>
</svg>
