<svg preserveAspectRatio="none" width="100%" height="100%" overflow="visible" style="display: block;" viewBox="0 0 407.016 425.018" fill="none" xmlns="http://www.w3.org/2000/svg">
<path id="Vector" d="M366.762 282.689C365.435 279 363.78 275.458 361.847 272.113C367.401 262.521 370.579 251.387 370.579 239.515C370.579 233.629 369.793 227.922 368.318 222.495C378.509 215.575 385.194 203.9 385.194 190.651C385.194 169.4 367.991 152.183 346.758 152.183C341.581 152.183 336.649 153.216 332.144 155.069C332.013 141.755 325.115 130.063 314.744 123.258C321.724 112.075 325.77 98.8592 325.77 84.7084C325.77 67.9503 320.102 52.5041 310.583 40.2061C313.384 36.074 315.039 31.1056 315.039 25.7273C315.039 11.5109 303.522 0 289.333 0C279.683 0 271.295 5.32912 266.888 13.1998C262.382 12.3308 257.73 11.8552 252.962 11.8552C212.757 11.8552 180.153 44.4694 180.153 84.7248C180.153 87.1844 180.285 89.6112 180.514 92.0052C167.948 94.9567 156.791 101.532 148.189 110.6C141.619 105.336 133.28 102.188 124.204 102.188C102.971 102.188 85.7679 119.405 85.7679 140.656C85.7679 153.757 92.3049 165.317 102.299 172.253C63.1258 176.533 32.636 209.754 32.636 250.108C32.636 260.012 34.4874 269.473 37.8296 278.18C15.5152 288.477 0 311.106 0 337.358C0 373.383 29.1791 402.57 65.1574 402.57C73.9389 402.57 82.3109 400.815 89.962 397.667C103.446 414.343 124.056 425.018 147.173 425.018C173.371 425.018 196.357 411.293 209.398 390.665C220.883 400.782 235.923 406.915 252.421 406.915C268.92 406.915 284.893 400.389 296.493 389.731C308.224 401.127 324.214 408.161 341.859 408.161C377.837 408.161 407.016 378.958 407.016 342.949C407.016 315.763 390.387 292.478 366.778 282.689H366.762Z" fill="var(--fill-0, #A2CE57)"/>
</svg>
