<svg preserveAspectRatio="none" width="100%" height="100%" overflow="visible" style="display: block;" viewBox="0 0 73.4373 12.113" fill="none" xmlns="http://www.w3.org/2000/svg">
<g id="Group">
<path id="Vector" d="M24.7539 5.85586H53.6624C55.2786 5.85586 56.5912 4.54371 56.5912 2.92793C56.5912 1.31214 55.2786 0 53.6624 0H12.0841C10.4678 0 9.15525 1.31214 9.15525 2.92793C9.15525 4.54371 10.4678 5.85586 12.0841 5.85586H2.90712C1.3017 5.85586 0 7.15716 0 8.7621C0 10.367 1.3017 11.6684 2.90712 11.6684H24.7539C26.3593 11.6684 27.661 10.367 27.661 8.7621C27.661 7.15716 26.3593 5.85586 24.7539 5.85586Z" fill="var(--fill-0, #7F6857)"/>
<path id="Vector_2" d="M71.539 8.31748H48.4881C47.4359 8.31748 46.5898 9.16333 46.5898 10.2152C46.5898 11.2671 47.4359 12.1129 48.4881 12.1129H71.539C72.5912 12.1129 73.4373 11.2671 73.4373 10.2152C73.4373 9.16333 72.5912 8.31748 71.539 8.31748Z" fill="var(--fill-0, #7F6857)"/>
</g>
</svg>
