<svg preserveAspectRatio="none" width="100%" height="100%" overflow="visible" style="display: block;" viewBox="0 0 49.341 45.8625" fill="none" xmlns="http://www.w3.org/2000/svg">
<path id="Vector" d="M32.8568 45.8347C20.7787 45.8347 12.1893 43.4165 6.78262 38.5106C-3.97648e-06 32.3678 0 23.8763 0 21.0829V5.55909C0 2.48769 2.48789 0 5.55953 0C8.63116 0 11.1191 2.48769 11.1191 5.55909V21.0829C11.1191 25.544 12.0503 28.2958 14.2463 30.2832C17.3179 33.0627 24.8372 35.9951 43.2253 34.1745C46.283 33.8687 49.0072 36.1063 49.313 39.1638C49.6188 42.2213 47.3811 44.9452 44.3372 45.251C40.2232 45.654 36.401 45.8625 32.8846 45.8625L32.8568 45.8347Z" fill="var(--fill-0, #7F6857)"/>
</svg>
