<svg preserveAspectRatio="none" width="100%" height="100%" overflow="visible" style="display: block;" viewBox="0 0 267.927 93.073" fill="none" xmlns="http://www.w3.org/2000/svg">
<path id="Vector" d="M0 76.5487C0.333571 61.5947 12.5506 49.5732 27.5752 49.5732C30.355 49.5732 33.0514 49.9901 35.581 50.7545C38.319 35.0223 52.0372 23.0563 68.5489 23.0563C79.2232 23.0563 88.73 28.0595 94.8594 35.8561C106.159 14.537 128.564 0 154.374 0C180.184 0 203.798 15.3153 214.778 37.5933C217.03 37.2598 219.337 37.0791 221.686 37.0791C245.05 37.0791 264.397 54.1872 267.927 76.5487V78.7723C267.927 86.6662 262.145 93.073 255.015 93.073H12.9259C5.79581 93.073 0.0139018 86.6662 0.0139018 78.7723V76.5487H0Z" fill="var(--fill-0, #7BC928)"/>
</svg>
