<svg preserveAspectRatio="none" width="100%" height="100%" overflow="visible" style="display: block;" viewBox="0 0 149 266" fill="none" xmlns="http://www.w3.org/2000/svg">
<g id="Isolation_Mode" clip-path="url(#clip0_0_50)">
<g id="Group">
<path id="Vector" d="M58.6195 248.157L56.9331 25.2456C56.9331 23.4814 57.1788 14.3032 55.4143 14.3032C53.6498 14.3032 54.6214 23.5373 54.6214 25.3014L52.2092 248.157H58.6195Z" fill="var(--fill-0, #659928)"/>
<path id="Vector_2" d="M53.8062 98.9614C54.6549 99.5197 54.8894 100.659 54.3311 101.507C53.7727 102.356 52.6336 102.59 51.7848 102.032L28.6564 86.7573C27.8077 86.199 27.5732 85.0601 28.1315 84.2116C28.6899 83.363 29.829 83.1285 30.6778 83.6979L53.8062 98.9726V98.9614Z" fill="var(--fill-0, #659928)"/>
<path id="Vector_3" d="M92.2344 139.046C90.9948 137.784 88.9734 137.751 87.7003 138.99L55.861 170.087C55.9392 170.511 55.9951 170.969 55.9951 171.449V178.16C56.5981 178.048 57.1788 177.758 57.6479 177.3L92.1785 143.568C93.4517 142.329 93.474 140.308 92.2344 139.035V139.046Z" fill="var(--fill-0, #659928)"/>
<path id="Vector_4" d="M87.7449 95.5782C87.7449 95.5782 98.0528 114.66 97.8741 120.679C97.6842 126.686 92.6587 131.42 86.6505 131.23C80.6423 131.04 75.9071 126.016 76.097 120.009C76.2868 114.002 87.7449 95.5782 87.7449 95.5782Z" fill="var(--fill-0, #9EE051)"/>
<path id="Vector_5" d="M128.753 106.364C128.753 106.364 124.308 127.59 120.277 132.068C116.256 136.534 109.366 136.902 104.887 132.883C100.42 128.863 100.052 121.974 104.072 117.496C108.093 113.03 128.742 106.364 128.742 106.364H128.753Z" fill="var(--fill-0, #9EE051)"/>
<path id="Vector_6" d="M131.467 154.421C131.467 154.421 110.773 160.92 104.899 159.602C99.0355 158.285 95.3502 152.445 96.668 146.583C97.9858 140.71 103.826 137.025 109.69 138.354C115.553 139.683 131.467 154.433 131.467 154.433V154.421Z" fill="var(--fill-0, #9EE051)"/>
<path id="Vector_7" d="M86.9744 109.145L89.6435 141.659L118.322 117.787" stroke="var(--stroke-0, #659928)" stroke-miterlimit="10" stroke-linecap="round"/>
<path id="Vector_8" d="M119.126 150.949L89.6435 141.659" stroke="var(--stroke-0, #659928)" stroke-miterlimit="10" stroke-linecap="round"/>
<path id="Vector_9" d="M2.94828 96.7953C2.94828 96.7953 11.9271 86.3219 15.5455 85.0602C19.1638 83.7984 23.1172 85.7078 24.3792 89.3143C25.6411 92.932 23.7315 96.8734 20.1243 98.1463C16.5059 99.4081 2.95945 96.7953 2.95945 96.7953H2.94828Z" fill="var(--fill-0, #9EE051)"/>
<path id="Vector_10" d="M0 69.9865C0 69.9865 13.6246 67.7868 17.1983 69.1491C20.772 70.5113 22.5588 74.5197 21.1964 78.0928C19.8227 81.6658 15.8247 83.4523 12.2398 82.0901C8.66617 80.7167 0 69.9865 0 69.9865Z" fill="var(--fill-0, #9EE051)"/>
<path id="Vector_11" d="M27.9194 57.4139C27.9194 57.4139 36.5073 68.2223 37.0546 72.0075C37.613 75.7926 34.9885 79.3098 31.2027 79.8681C27.4168 80.4264 23.899 77.8025 23.3406 74.0173C22.7822 70.2321 27.9194 57.4251 27.9194 57.4251V57.4139Z" fill="var(--fill-0, #9EE051)"/>
<path id="Vector_12" d="M11.1789 94.1602L29.8849 85.1495L9.16872 73.5707" stroke="var(--stroke-0, #659928)" stroke-miterlimit="10" stroke-linecap="round"/>
<path id="Vector_13" d="M28.6788 65.5314L29.8849 85.1495" stroke="var(--stroke-0, #659928)" stroke-miterlimit="10" stroke-linecap="round"/>
<path id="Vector_14" d="M102.028 163.622C102.028 163.622 91.1958 172.175 87.4099 172.722C83.624 173.269 80.1062 170.634 79.5702 166.849C79.0229 163.064 81.6585 159.546 85.4444 159.01C89.2303 158.475 102.028 163.633 102.028 163.633V163.622Z" fill="var(--fill-0, #9EE051)"/>
<path id="Vector_15" d="M99.7614 190.509C99.7614 190.509 85.9693 190.051 82.7306 188.019C79.492 185.987 78.5092 181.71 80.5306 178.472C82.5631 175.223 86.8404 174.252 90.079 176.273C93.3288 178.305 99.7614 190.509 99.7614 190.509Z" fill="var(--fill-0, #9EE051)"/>
<path id="Vector_16" d="M69.9436 197.465C69.9436 197.465 63.6003 185.216 63.7901 181.386C63.98 177.568 67.2298 174.62 71.0492 174.799C74.8685 174.989 77.8168 178.238 77.6381 182.056C77.4483 185.875 69.9547 197.454 69.9547 197.454L69.9436 197.465Z" fill="var(--fill-0, #9EE051)"/>
<path id="Vector_17" d="M93.4517 164.627L69.3517 165.877L91.4638 185.216" stroke="var(--stroke-0, #659928)" stroke-miterlimit="10" stroke-linecap="round"/>
<path id="Vector_18" d="M70.77 189.359L69.3517 165.877" stroke="var(--stroke-0, #659928)" stroke-miterlimit="10" stroke-linecap="round"/>
<path id="Vector_19" d="M71.0045 65.643C70.4238 64.8168 69.2847 64.6046 68.4471 65.1852L54.6884 74.7207C55.66 75.5247 56.3189 76.6301 56.654 77.836L70.5466 68.2C71.3842 67.6194 71.5964 66.4805 71.0157 65.643H71.0045Z" fill="var(--fill-0, #659928)"/>
<path id="Vector_20" d="M11.3353 182.179C11.3353 182.179 23.0502 163.923 28.3996 161.177C33.7489 158.43 40.3155 160.54 43.0628 165.889C45.8101 171.237 43.6994 177.802 38.35 180.549C33.0007 183.296 11.3353 182.179 11.3353 182.179Z" fill="var(--fill-0, #9EE051)"/>
<path id="Vector_21" d="M0.926923 141.067C0.926923 141.067 21.6654 134.692 27.5285 136.043C33.3915 137.394 37.0434 143.245 35.6809 149.106C34.3185 154.968 28.4666 158.62 22.6035 157.257C16.7404 155.895 0.926923 141.056 0.926923 141.056V141.067Z" fill="var(--fill-0, #9EE051)"/>
<path id="Vector_22" d="M41.678 115.442C41.678 115.442 57.3799 130.404 59.0662 136.188C60.7525 141.96 57.4245 148.001 51.6508 149.687C45.8771 151.373 39.8242 148.057 38.149 142.273C36.4738 136.5 41.678 115.442 41.678 115.442Z" fill="var(--fill-0, #9EE051)"/>
<path id="Vector_23" d="M23.5751 176.284L50.7462 158.207L15.981 144.663" stroke="var(--stroke-0, #659928)" stroke-miterlimit="10" stroke-linecap="round"/>
<path id="Vector_24" d="M44.6151 127.925L50.7462 158.207" stroke="var(--stroke-0, #659928)" stroke-miterlimit="10" stroke-linecap="round"/>
</g>
<path id="Vector_25" d="M70.971 34.0107C70.971 34.0107 76.3203 48.526 75.5833 52.7578C74.8462 56.9896 70.8258 59.8146 66.5932 59.0776C62.3718 58.3407 59.5352 54.3099 60.2723 50.0892C61.0094 45.8575 70.971 34.0218 70.971 34.0218V34.0107Z" fill="var(--fill-0, #9EE051)"/>
<path id="Vector_26" d="M98.8345 45.757C98.8345 45.757 93.5522 60.2947 90.2577 63.0526C86.9632 65.7994 82.0717 65.3639 79.3133 62.07C76.566 58.7761 77.0016 53.8856 80.2961 51.1277C83.5905 48.3809 98.8345 45.757 98.8345 45.757Z" fill="var(--fill-0, #9EE051)"/>
<path id="Vector_27" d="M95.8974 79.9574C95.8974 79.9574 80.6311 82.4586 76.6219 80.9289C72.6127 79.3992 70.6025 74.9105 72.1324 70.9021C73.6624 66.8936 78.1407 64.8838 82.1611 66.4023C86.1703 67.932 95.9086 79.9463 95.9086 79.9463L95.8974 79.9574Z" fill="var(--fill-0, #9EE051)"/>
<path id="Vector_28" d="M69.0613 43.5015L67.6542 66.7261L90.3135 52.7802" stroke="var(--stroke-0, #659928)" stroke-miterlimit="10" stroke-linecap="round"/>
<path id="Vector_29" d="M87.5327 76.2616L67.6542 66.7261" stroke="var(--stroke-0, #659928)" stroke-miterlimit="10" stroke-linecap="round"/>
<path id="Vector_30" d="M24.8371 43.4903C24.8371 43.4903 35.1784 31.9785 39.2546 30.661C43.342 29.3434 47.7198 31.5765 49.0376 35.6632C50.3553 39.7498 48.1218 44.1268 44.0344 45.4443C39.947 46.7619 24.8259 43.4903 24.8259 43.4903H24.8371Z" fill="var(--fill-0, #9EE051)"/>
<path id="Vector_31" d="M22.2238 13.3653C22.2238 13.3653 37.5571 11.255 41.5217 12.874C45.4862 14.5042 47.3847 19.0375 45.7654 23.0125C44.1349 26.9874 39.6008 28.8744 35.6251 27.2554C31.6494 25.6252 22.2238 13.3653 22.2238 13.3653Z" fill="var(--fill-0, #9EE051)"/>
<path id="Vector_32" d="M53.8397 0C53.8397 0 63.1871 12.3381 63.7008 16.5922C64.2257 20.8463 61.1881 24.732 56.9331 25.2456C52.6782 25.7704 48.803 22.7445 48.2781 18.4792C47.7533 14.2251 53.8397 0 53.8397 0Z" fill="var(--fill-0, #9EE051)"/>
<path id="Vector_33" d="M34.1286 40.7547L55.325 31.1411L32.3976 17.6306" stroke="var(--stroke-0, #659928)" stroke-miterlimit="10" stroke-linecap="round"/>
<path id="Vector_34" d="M54.4762 9.12236L55.325 31.1411" stroke="var(--stroke-0, #659928)" stroke-miterlimit="10" stroke-linecap="round"/>
<g id="Group_2">
<path id="Vector_35" d="M12.3739 246.817H25.9985C25.5741 246.002 25.3173 245.042 25.3173 244.004C25.3173 241.145 27.1934 238.823 29.5163 238.823H115.497C117.82 238.823 119.696 241.145 119.696 244.004C119.696 246.862 117.82 249.184 115.497 249.184H58.8205C59.3342 250.089 59.6469 251.183 59.6469 252.378C59.6469 255.448 57.6255 257.95 55.1351 257.95H12.3739C9.88345 257.95 7.86209 255.46 7.86209 252.378C7.86209 249.296 9.88345 246.817 12.3739 246.817Z" fill="var(--fill-0, #A2CE57)"/>
<path id="Vector_36" d="M149 259.021C149 262.874 145.873 266 142.02 266H73.0705C69.2177 266 66.0907 262.874 66.0907 259.021C66.0907 255.169 69.2177 252.043 73.0705 252.043H142.02C145.873 252.043 149 255.169 149 259.021Z" fill="var(--fill-0, #A2CE57)"/>
</g>
</g>
<defs>
<clipPath id="clip0_0_50">
<rect width="149" height="266" fill="white"/>
</clipPath>
</defs>
</svg>
