<svg preserveAspectRatio="none" width="100%" height="100%" overflow="visible" style="display: block;" viewBox="0 0 37.9807 40.6644" fill="none" xmlns="http://www.w3.org/2000/svg">
<g id="Vector" opacity="0.5" style="mix-blend-mode:multiply">
<path d="M33.7838 0.52C33.1638 0.27 32.5638 0.1 31.9838 0C40.0038 6.78 22.8738 18.24 22.8738 18.24C22.8738 18.24 23.5038 34.67 15.2538 33.26C7.01384 31.85 14.2838 21.95 14.2838 21.95C9.37384 23.82 2.81384 22.69 0.153837 17.55C0.00383682 18.35 -0.0561633 19.24 0.0638367 20.27C0.653837 25.39 4.52384 26.89 9.08384 25.72C5.72384 30.02 4.17384 35.7 10.3138 38.91C20.2038 44.09 28.0838 37.73 26.1938 20.75C26.1938 20.75 46.5138 5.69 33.7938 0.51L33.7838 0.52Z" fill="var(--fill-0, #3D823D)"/>
</g>
</svg>
