<svg preserveAspectRatio="none" width="100%" height="100%" overflow="visible" style="display: block;" viewBox="0 0 112 134.681" fill="none" xmlns="http://www.w3.org/2000/svg">
<g id="Group">
<path id="Vector" d="M46.0908 99.0291C46.0908 99.0291 27.2922 94.1059 21.9444 84.216C16.5858 74.3152 18.343 58.4177 15.5336 56.2814C12.7132 54.145 32.1736 49.2435 42.4244 66.7135C52.6753 84.1943 46.0908 99.0291 46.0908 99.0291Z" fill="var(--fill-0, #A2CE57)"/>
<path id="Vector_2" d="M58.9559 116.217C58.9559 116.217 71.181 122.583 78.7091 119.926C86.2373 117.28 92.8976 108.084 95.3925 108.301C97.8875 108.518 90.0014 96.676 76.2902 100.981C62.579 105.286 58.9559 116.217 58.9559 116.217Z" fill="var(--fill-0, #A2CE57)"/>
<path id="Vector_3" d="M55.2353 71.7885C55.2353 71.7885 34.2129 54.3511 44.9085 34.3652C55.6041 14.3794 71.1159 0 71.1159 0C71.1159 0 81.4644 27.6744 76.1491 46.5758C70.8339 65.4772 55.2353 71.7885 55.2353 71.7885Z" fill="var(--fill-0, #A2CE57)"/>
<path id="Vector_4" d="M62.1017 91.102C62.1017 91.102 64.5858 70.1619 79.7071 63.4927C94.8285 56.8344 112 65.5531 112 65.5531C112 65.5531 109.299 66.7785 107.889 69.7281C106.479 72.6669 92.941 96.1988 79.6529 96.2856C66.3647 96.3832 62.1017 91.102 62.1017 91.102Z" fill="var(--fill-0, #A2CE57)"/>
<path id="Vector_5" d="M45.2881 114.742C45.2881 114.742 39.8753 99.181 26.739 94.8758C13.5919 90.5598 0 99.2352 0 99.2352C0 99.2352 2.3539 100.038 3.76407 102.369C5.17424 104.701 18.3864 123.201 29.4617 122.181C40.5369 121.173 45.2773 114.732 45.2773 114.732L45.2881 114.742Z" fill="var(--fill-0, #A2CE57)"/>
<path id="Vector_6" d="M54.8664 134.674C54.6386 134.62 54.4325 134.468 54.3349 134.229C54.2047 133.915 51.2868 126.281 52.762 99.1051C54.2373 72.0488 63.6312 20.8751 63.7288 20.3654C63.8047 19.9642 64.1844 19.6931 64.5858 19.769C64.5858 19.769 64.5966 19.769 64.6075 19.769C64.998 19.8557 65.2475 20.2353 65.1715 20.6257C65.0739 21.1353 55.6908 72.2115 54.2264 99.181C52.7729 125.89 55.6692 133.6 55.6908 133.676C55.8427 134.056 55.6583 134.49 55.2786 134.631C55.1376 134.685 54.9858 134.696 54.8447 134.663L54.8664 134.674Z" fill="var(--fill-0, #659928)"/>
<path id="Vector_7" d="M53.3586 108.117L52.6536 107.368C52.5451 107.26 42.3159 96.3181 35.7424 81.2772C35.5797 80.8977 35.7424 80.4639 36.122 80.3012C36.4908 80.1386 36.9356 80.3012 37.0983 80.6808C42.5871 93.2275 50.6576 102.879 53.0441 105.59C54.5953 102.749 59.3573 94.1926 62.6875 89.855C70.4217 79.7699 87.8861 70.1185 88.6237 69.7065C88.9817 69.5113 89.4264 69.6414 89.6325 69.9993C89.8278 70.3571 89.6976 70.8017 89.3397 71.0078C89.1661 71.1054 71.4088 80.9194 63.8698 90.755C60.0081 95.7867 53.9227 107.097 53.8576 107.206L53.3695 108.106L53.3586 108.117Z" fill="var(--fill-0, #659928)"/>
<path id="Vector_8" d="M45.2773 115.404C35.84 113.322 25.8603 109.071 25.318 108.843C24.9383 108.68 24.7647 108.247 24.9275 107.878C25.0902 107.498 25.5241 107.325 25.8929 107.488C26.0664 107.564 42.7498 114.656 53.1417 115.046C63.4902 115.436 78.5356 108.355 78.6875 108.279C79.0563 108.106 79.501 108.258 79.6746 108.626C79.8481 108.995 79.6963 109.44 79.3275 109.613C78.6983 109.917 63.8047 116.922 53.0875 116.521C50.6902 116.434 48 116.011 45.2664 115.404H45.2773Z" fill="var(--fill-0, #659928)"/>
</g>
</svg>
