<svg preserveAspectRatio="none" width="100%" height="100%" overflow="visible" style="display: block;" viewBox="0 0 407 145.723" fill="none" xmlns="http://www.w3.org/2000/svg">
<g id="Group">
<path id="Vector" d="M407 145.444H0V145.723H407V145.444Z" fill="var(--fill-0, #5BBB7F)"/>
<path id="Vector_2" d="M407 143.706H0V145.427H407V143.706Z" fill="var(--fill-0, #5ABB7F)"/>
<path id="Vector_3" d="M407 141.968H0V143.706H407V141.968Z" fill="var(--fill-0, #5ABA7E)"/>
<path id="Vector_4" d="M407 140.246H0V141.968H407V140.246Z" fill="var(--fill-0, #59BA7E)"/>
<path id="Vector_5" d="M407 138.508H0V140.246H407V138.508Z" fill="var(--fill-0, #59BA7D)"/>
<path id="Vector_6" d="M407 136.786H0V138.508H407V136.786Z" fill="var(--fill-0, #58BA7D)"/>
<path id="Vector_7" d="M407 135.048H0V136.786H407V135.048Z" fill="var(--fill-0, #58BA7D)"/>
<path id="Vector_8" d="M407 133.31H0V135.032H407V133.31Z" fill="var(--fill-0, #57B97C)"/>
<path id="Vector_9" d="M407 131.572H0V133.31H407V131.572Z" fill="var(--fill-0, #56B97C)"/>
<path id="Vector_10" d="M407 129.85H0V131.588H407V129.85Z" fill="var(--fill-0, #56B97B)"/>
<path id="Vector_11" d="M407 128.112H0V129.834H407V128.112Z" fill="var(--fill-0, #55B87B)"/>
<path id="Vector_12" d="M407 126.39H0V128.112H407V126.39Z" fill="var(--fill-0, #54B87A)"/>
<path id="Vector_13" d="M407 124.652H0V126.39H407V124.652Z" fill="var(--fill-0, #54B879)"/>
<path id="Vector_14" d="M407 122.914H0V124.652H407V122.914Z" fill="var(--fill-0, #53B879)"/>
<path id="Vector_15" d="M407 121.176H0V122.898H407V121.176Z" fill="var(--fill-0, #52B778)"/>
<path id="Vector_16" d="M407 119.454H0V121.176H407V119.454Z" fill="var(--fill-0, #51B778)"/>
<path id="Vector_17" d="M407 117.716H0V119.454H407V117.716Z" fill="var(--fill-0, #51B777)"/>
<path id="Vector_18" d="M407 115.978H0V117.716H407V115.978Z" fill="var(--fill-0, #50B676)"/>
<path id="Vector_19" d="M407 114.256H0V115.978H407V114.256Z" fill="var(--fill-0, #4FB676)"/>
<path id="Vector_20" d="M407 112.518H0V114.256H407V112.518Z" fill="var(--fill-0, #4EB675)"/>
<path id="Vector_21" d="M407 110.78H0V112.502H407V110.78Z" fill="var(--fill-0, #4DB574)"/>
<path id="Vector_22" d="M407 109.058H0V110.796H407V109.058Z" fill="var(--fill-0, #4CB574)"/>
<path id="Vector_23" d="M407 107.32H0V109.042H407V107.32Z" fill="var(--fill-0, #4BB473)"/>
<path id="Vector_24" d="M407 105.582H0V107.32H407V105.582Z" fill="var(--fill-0, #4AB472)"/>
<path id="Vector_25" d="M407 103.844H0V105.582H407V103.844Z" fill="var(--fill-0, #4AB472)"/>
<path id="Vector_26" d="M407 102.122H0V103.844H407V102.122Z" fill="var(--fill-0, #49B371)"/>
<path id="Vector_27" d="M407 100.384H0V102.106H407V100.384Z" fill="var(--fill-0, #48B370)"/>
<path id="Vector_28" d="M407 98.6624H0V100.401H407V98.6624Z" fill="var(--fill-0, #47B26F)"/>
<path id="Vector_29" d="M407 96.9243H0V98.6624H407V96.9243Z" fill="var(--fill-0, #46B26F)"/>
<path id="Vector_30" d="M407 95.1862H0V96.9079H407V95.1862Z" fill="var(--fill-0, #44B26E)"/>
<path id="Vector_31" d="M407 93.4645H0V95.1862H407V93.4645Z" fill="var(--fill-0, #43B16D)"/>
<path id="Vector_32" d="M407 91.7264H0V93.4645H407V91.7264Z" fill="var(--fill-0, #42B16C)"/>
<path id="Vector_33" d="M407 89.9883H0V91.7264H407V89.9883Z" fill="var(--fill-0, #41B06B)"/>
<path id="Vector_34" d="M407 88.2665H0V89.9883H407V88.2665Z" fill="var(--fill-0, #40B06A)"/>
<path id="Vector_35" d="M407 86.5284H0V88.2666H407V86.5284Z" fill="var(--fill-0, #3FAF6A)"/>
<path id="Vector_36" d="M407 84.7903H0V86.512H407V84.7903Z" fill="var(--fill-0, #3EAF69)"/>
<path id="Vector_37" d="M407 83.0522H0V84.7903H407V83.0522Z" fill="var(--fill-0, #3DAE68)"/>
<path id="Vector_38" d="M407 81.3305H0V83.0522H407V81.3305Z" fill="var(--fill-0, #3CAE67)"/>
<path id="Vector_39" d="M407 79.5924H0V81.3305H407V79.5924Z" fill="var(--fill-0, #3AAD66)"/>
<path id="Vector_40" d="M407 77.8707H0V79.5924H407V77.8707Z" fill="var(--fill-0, #39AD65)"/>
<path id="Vector_41" d="M407 76.1326H0V77.8707H407V76.1326Z" fill="var(--fill-0, #38AC64)"/>
<path id="Vector_42" d="M407 74.3945H0V76.1162H407V74.3945Z" fill="var(--fill-0, #37AC63)"/>
<path id="Vector_43" d="M407 72.6563H0V74.3945H407V72.6563Z" fill="var(--fill-0, #35AB62)"/>
<path id="Vector_44" d="M407 70.9346H0V72.6727H407V70.9346Z" fill="var(--fill-0, #34AB61)"/>
<path id="Vector_45" d="M407 69.1965H0V70.9182H407V69.1965Z" fill="var(--fill-0, #33AA60)"/>
<path id="Vector_46" d="M407 67.4748H0V69.1965H407V67.4748Z" fill="var(--fill-0, #31AA5F)"/>
<path id="Vector_47" d="M407 65.7367H0V67.4748H407V65.7367Z" fill="var(--fill-0, #30A95E)"/>
<path id="Vector_48" d="M407 63.9986H0V65.7367H407V63.9986Z" fill="var(--fill-0, #2FA85D)"/>
<path id="Vector_49" d="M407 62.2605H0V63.9822H407V62.2605Z" fill="var(--fill-0, #2DA85C)"/>
<path id="Vector_50" d="M407 60.5387H0V62.2769H407V60.5387Z" fill="var(--fill-0, #2CA75B)"/>
<path id="Vector_51" d="M407 58.8006H0V60.5223H407V58.8006Z" fill="var(--fill-0, #2BA75A)"/>
<path id="Vector_52" d="M407 57.0625H0V58.8006H407V57.0625Z" fill="var(--fill-0, #29A659)"/>
<path id="Vector_53" d="M407 55.3408H0V57.0625H407V55.3408Z" fill="var(--fill-0, #28A658)"/>
<path id="Vector_54" d="M407 53.6027H0V55.3408H407V53.6027Z" fill="var(--fill-0, #26A556)"/>
<path id="Vector_55" d="M407 51.881H0V53.6027H407V51.881Z" fill="var(--fill-0, #25A455)"/>
<path id="Vector_56" d="M407 50.1429H0V51.881H407V50.1429Z" fill="var(--fill-0, #23A454)"/>
<path id="Vector_57" d="M407 48.4048H0V50.1265H407V48.4048Z" fill="var(--fill-0, #22A353)"/>
<path id="Vector_58" d="M407 46.6666H0V48.4048H407V46.6666Z" fill="var(--fill-0, #20A252)"/>
<path id="Vector_59" d="M407 44.9285H0V46.6667H407V44.9285Z" fill="var(--fill-0, #1FA251)"/>
<path id="Vector_60" d="M407 43.2068H0V44.9285H407V43.2068Z" fill="var(--fill-0, #1DA14F)"/>
<path id="Vector_61" d="M407 41.4851H0V43.2068H407V41.4851Z" fill="var(--fill-0, #1CA04E)"/>
<path id="Vector_62" d="M407 39.747H0V41.4851H407V39.747Z" fill="var(--fill-0, #1AA04D)"/>
<path id="Vector_63" d="M407 38.0089H0V39.747H407V38.0089Z" fill="var(--fill-0, #189F4C)"/>
<path id="Vector_64" d="M407 36.2708H0V37.9925H407V36.2708Z" fill="var(--fill-0, #179E4A)"/>
<path id="Vector_65" d="M407 34.5491H0V36.2872H407V34.5491Z" fill="var(--fill-0, #159E49)"/>
<path id="Vector_66" d="M407 32.8109H0V34.5491H407V32.8109Z" fill="var(--fill-0, #139D48)"/>
<path id="Vector_67" d="M407 31.0728H0V32.8109H407V31.0728Z" fill="var(--fill-0, #129C47)"/>
<path id="Vector_68" d="M407 29.3511H0V31.0728H407V29.3511Z" fill="var(--fill-0, #109C45)"/>
<path id="Vector_69" d="M407 27.613H0V29.3511H407V27.613Z" fill="var(--fill-0, #0E9B44)"/>
<path id="Vector_70" d="M407 25.8749H0V27.5966H407V25.8749Z" fill="var(--fill-0, #0D9A43)"/>
<path id="Vector_71" d="M407 24.1368H0V25.8749H407V24.1368Z" fill="var(--fill-0, #0B9A41)"/>
<path id="Vector_72" d="M407 22.4151H0V24.1368H407V22.4151Z" fill="var(--fill-0, #099940)"/>
<path id="Vector_73" d="M407 20.6769H0V22.4151H407V20.6769Z" fill="var(--fill-0, #07983F)"/>
<path id="Vector_74" d="M407 18.9552H0V20.6769H407V18.9552Z" fill="var(--fill-0, #05973D)"/>
<path id="Vector_75" d="M407 17.2171H0V18.9552H407V17.2171Z" fill="var(--fill-0, #04973C)"/>
<path id="Vector_76" d="M407 15.479H0V17.2007H407V15.479Z" fill="var(--fill-0, #02963A)"/>
<path id="Vector_77" d="M407 13.7573H0V15.4954H407V13.7573Z" fill="var(--fill-0, #009539)"/>
<path id="Vector_78" d="M407 0H0V13.7409H407V0Z" fill="var(--fill-0, #009539)"/>
</g>
</svg>
