<svg preserveAspectRatio="none" width="100%" height="100%" overflow="visible" style="display: block;" viewBox="0 0 37.1436 32.4758" fill="none" xmlns="http://www.w3.org/2000/svg">
<g id="Vector" opacity="0.5" style="mix-blend-mode:multiply">
<path d="M35.6339 3.60564C28.2018 10.0741 18.9764 18.7877 13.5712 23.9625C14.5722 18.2035 16.2988 7.85394 17.1496 0C14.9892 6.6771 11.5109 8.73866 11.1689 2.72927C8.80837 10.6416 6.66467 19.589 6.12249 21.8759C5.00476 21.108 3.862 20.3485 2.78598 19.6557C4.42921 22.0011 3.13631 22.8023 0 21.2415C2.81935 24.3047 6.95661 28.0856 9.1587 30.047L9.17539 30.2389C9.34221 30.4059 9.51738 30.5728 9.70923 30.7314C10.5684 31.4825 11.4526 32.0501 12.3451 32.4758C17.5083 27.5347 28.7857 16.651 37.1436 7.92072C32.0471 11.5681 30.1787 11.6849 35.6422 3.60564H35.6339Z" fill="var(--fill-0, #6AB23B)"/>
</g>
</svg>
