<svg preserveAspectRatio="none" width="100%" height="100%" overflow="visible" style="display: block;" viewBox="0 0 35.5087 25.2311" fill="none" xmlns="http://www.w3.org/2000/svg">
<g id="Vector" opacity="0.5" style="mix-blend-mode:multiply">
<path d="M21.3953 22.819C24.9654 20.24 32.2557 14.8899 35.5087 11.8268C31.9971 14.7898 25.1322 17.4272 27.9015 14.314C25.616 16.192 23.3222 18.2702 21.4871 19.9812C21.6039 15.8748 21.729 8.86386 21.4537 2.67085C20.728 11.0339 18.184 7.42828 16.9411 0C16.7075 5.85916 16.7659 13.0454 16.8493 17.7861C14.689 15.4325 10.8186 11.2676 6.82315 7.2697C10.2097 12.5363 5.61367 10.4664 0 6.48514C7.46543 14.698 18.601 25.2311 18.601 25.2311V23.904L19.3434 24.2796C19.3434 24.2796 19.8105 23.9458 20.5862 23.3949L21.362 23.5034C21.362 23.5034 21.3703 23.253 21.3953 22.8107V22.819Z" fill="var(--fill-0, #6AB23B)"/>
</g>
</svg>
