<svg preserveAspectRatio="none" width="100%" height="100%" overflow="visible" style="display: block;" viewBox="0 0 114 137.487" fill="none" xmlns="http://www.w3.org/2000/svg">
<g id="Group">
<path id="Vector" d="M46.9139 101.092C46.9139 101.092 27.7796 96.0664 22.3363 85.9705C16.8819 75.8635 18.6706 59.6347 15.8109 57.4539C12.9402 55.2731 32.7481 50.2694 43.182 68.1033C53.6159 85.9483 46.9139 101.092 46.9139 101.092Z" fill="var(--fill-0, #A2CE57)"/>
<path id="Vector_2" d="M60.0087 118.638C60.0087 118.638 72.4521 125.137 80.1147 122.424C87.7772 119.723 94.5565 110.336 97.096 110.557C99.6355 110.779 91.6085 98.69 77.6525 103.085C63.6965 107.48 60.0087 118.638 60.0087 118.638Z" fill="var(--fill-0, #A2CE57)"/>
<path id="Vector_3" d="M56.2216 73.2841C56.2216 73.2841 34.8238 55.4834 45.7104 35.0812C56.597 14.679 72.3859 0 72.3859 0C72.3859 0 82.9191 28.2509 77.509 47.5461C72.0988 66.8413 56.2216 73.2841 56.2216 73.2841Z" fill="var(--fill-0, #A2CE57)"/>
<path id="Vector_4" d="M63.2107 93C63.2107 93 65.7391 71.6236 81.1305 64.8155C96.5218 58.0185 114 66.9188 114 66.9188C114 66.9188 111.251 68.1697 109.815 71.1808C108.38 74.1808 94.6007 98.203 81.0753 98.2915C67.5498 98.3912 63.2107 93 63.2107 93Z" fill="var(--fill-0, #A2CE57)"/>
<path id="Vector_5" d="M46.0969 117.133C46.0969 117.133 40.5873 101.247 27.2165 96.8524C13.8346 92.4465 0 101.303 0 101.303C0 101.303 2.39593 102.122 3.83128 104.502C5.26663 106.882 18.7148 125.768 29.9878 124.727C41.2608 123.697 46.0858 117.122 46.0858 117.122L46.0969 117.133Z" fill="var(--fill-0, #A2CE57)"/>
<path id="Vector_6" d="M55.8462 137.48C55.6143 137.424 55.4046 137.269 55.3052 137.026C55.1727 136.705 52.2026 128.911 53.7042 101.17C55.2058 73.5498 64.7675 21.31 64.8668 20.7897C64.9441 20.3801 65.3306 20.1033 65.7391 20.1808C65.7391 20.1808 65.7501 20.1808 65.7612 20.1808C66.1586 20.2694 66.4126 20.6568 66.3353 21.0554C66.2359 21.5756 56.6853 73.7159 55.1948 101.247C53.7153 128.513 56.6632 136.384 56.6853 136.461C56.8399 136.849 56.6522 137.292 56.2658 137.435C56.1222 137.491 55.9677 137.502 55.8241 137.469L55.8462 137.48Z" fill="var(--fill-0, #659928)"/>
<path id="Vector_7" d="M54.3115 110.369L53.5938 109.605C53.4834 109.494 43.0716 98.3247 36.3806 82.9705C36.215 82.583 36.3806 82.1402 36.7671 81.9742C37.1425 81.8081 37.5952 81.9742 37.7608 82.3616C43.3476 95.1697 51.5622 105.022 53.9913 107.79C55.5702 104.889 60.4172 96.155 63.8069 91.7269C71.6792 81.4317 89.4555 71.5793 90.2063 71.1587C90.5706 70.9594 91.0233 71.0923 91.2331 71.4576C91.4319 71.8229 91.2994 72.2768 90.935 72.4871C90.7584 72.5867 72.684 82.6052 65.0104 92.6458C61.0797 97.7823 54.8856 109.328 54.8194 109.439L54.3225 110.358L54.3115 110.369Z" fill="var(--fill-0, #659928)"/>
<path id="Vector_8" d="M46.0858 117.808C36.48 115.683 26.3221 111.343 25.7701 111.111C25.3836 110.945 25.207 110.502 25.3726 110.125C25.5382 109.738 25.9799 109.561 26.3553 109.727C26.5319 109.804 43.5132 117.044 54.0907 117.443C64.6239 117.841 79.938 110.613 80.0926 110.535C80.468 110.358 80.9207 110.513 81.0973 110.889C81.274 111.266 81.1194 111.72 80.744 111.897C80.1036 112.207 64.9441 119.358 54.0354 118.948C51.5953 118.86 48.8571 118.428 46.0748 117.808H46.0858Z" fill="var(--fill-0, #659928)"/>
</g>
</svg>
