<svg preserveAspectRatio="none" width="100%" height="100%" overflow="visible" style="display: block;" viewBox="0 0 11 13" fill="none" xmlns="http://www.w3.org/2000/svg">
<g id="Vector">
<path d="M10.45 0.565217H6.6C6.6 0.415312 6.54205 0.271547 6.43891 0.165548C6.33576 0.0595495 6.19587 0 6.05 0H4.95C4.80413 0 4.66424 0.0595495 4.56109 0.165548C4.45795 0.271547 4.4 0.415312 4.4 0.565217H0.55C0.404131 0.565217 0.264236 0.624767 0.161091 0.730766C0.0579462 0.836765 0 0.98053 0 1.13043C0 1.28034 0.0579462 1.42411 0.161091 1.5301C0.264236 1.6361 0.404131 1.69565 0.55 1.69565H10.45C10.5959 1.69565 10.7358 1.6361 10.8389 1.5301C10.9421 1.42411 11 1.28034 11 1.13043C11 0.98053 10.9421 0.836765 10.8389 0.730766C10.7358 0.624767 10.5959 0.565217 10.45 0.565217Z" fill="var(--fill-0, #909090)"/>
<path d="M9.625 2.26087C9.47913 2.26087 9.33924 2.32042 9.23609 2.42642C9.13295 2.53242 9.075 2.67618 9.075 2.82609V11.8696H1.925V2.82609C1.925 2.67618 1.86705 2.53242 1.76391 2.42642C1.66076 2.32042 1.52087 2.26087 1.375 2.26087C1.22913 2.26087 1.08924 2.32042 0.986091 2.42642C0.882946 2.53242 0.825 2.67618 0.825 2.82609V12.4348C0.825 12.5847 0.882946 12.7285 0.986091 12.8345C1.08924 12.9405 1.22913 13 1.375 13H9.625C9.77087 13 9.91076 12.9405 10.0139 12.8345C10.1171 12.7285 10.175 12.5847 10.175 12.4348V2.82609C10.175 2.67618 10.1171 2.53242 10.0139 2.42642C9.91076 2.32042 9.77087 2.26087 9.625 2.26087Z" fill="var(--fill-0, #909090)"/>
<path d="M4.675 10.1739V5.08696C4.675 4.93705 4.61705 4.79329 4.51391 4.68729C4.41076 4.58129 4.27087 4.52174 4.125 4.52174C3.97913 4.52174 3.83924 4.58129 3.73609 4.68729C3.63295 4.79329 3.575 4.93705 3.575 5.08696V10.1739C3.575 10.3238 3.63295 10.4676 3.73609 10.5736C3.83924 10.6796 3.97913 10.7391 4.125 10.7391C4.27087 10.7391 4.41076 10.6796 4.51391 10.5736C4.61705 10.4676 4.675 10.3238 4.675 10.1739Z" fill="var(--fill-0, #909090)"/>
<path d="M7.425 10.1739V5.08696C7.425 4.93705 7.36705 4.79329 7.26391 4.68729C7.16076 4.58129 7.02087 4.52174 6.875 4.52174C6.72913 4.52174 6.58924 4.58129 6.48609 4.68729C6.38295 4.79329 6.325 4.93705 6.325 5.08696V10.1739C6.325 10.3238 6.38295 10.4676 6.48609 10.5736C6.58924 10.6796 6.72913 10.7391 6.875 10.7391C7.02087 10.7391 7.16076 10.6796 7.26391 10.5736C7.36705 10.4676 7.425 10.3238 7.425 10.1739Z" fill="var(--fill-0, #909090)"/>
</g>
</svg>
