<svg preserveAspectRatio="none" width="100%" height="100%" overflow="visible" style="display: block;" viewBox="0 0 16 16" fill="none" xmlns="http://www.w3.org/2000/svg">
<g id="close-x-svgrepo-com 1">
<path id="Vector" fill-rule="evenodd" clip-rule="evenodd" d="M3.52859 3.52859C3.78895 3.26825 4.21105 3.26825 4.47141 3.52859L8 7.0572L11.5286 3.52859C11.7889 3.26825 12.2111 3.26825 12.4714 3.52859C12.7317 3.78895 12.7317 4.21105 12.4714 4.47141L8.9428 8L12.4714 11.5286C12.7317 11.7889 12.7317 12.2111 12.4714 12.4714C12.2111 12.7317 11.7889 12.7317 11.5286 12.4714L8 8.9428L4.47141 12.4714C4.21105 12.7317 3.78895 12.7317 3.52859 12.4714C3.26825 12.2111 3.26825 11.7889 3.52859 11.5286L7.0572 8L3.52859 4.47141C3.26825 4.21105 3.26825 3.78895 3.52859 3.52859Z" fill="var(--fill-0, #FF0000)"/>
</g>
</svg>
