<svg preserveAspectRatio="none" width="100%" height="100%" overflow="visible" style="display: block;" viewBox="0 0 58.8893 693.885" fill="none" xmlns="http://www.w3.org/2000/svg">
<path id="Vector" d="M57.2214 690.578C57.2214 690.578 52.8155 689.619 47.117 683.782C41.4185 677.959 39.5421 668.105 39.5421 668.105V11.4934C39.5421 5.90653 35.0111 0 29.4377 0C23.8643 0 19.3332 5.92043 19.3332 11.4934V668.105C19.3332 668.105 17.4569 677.945 11.7584 683.782C6.05988 689.619 1.65395 690.578 1.65395 690.578C0.73663 690.578 0 691.314 0 692.232C0 693.149 0.73663 693.885 1.65395 693.885H57.2353C58.1526 693.885 58.8893 693.149 58.8893 692.232C58.8893 691.314 58.1526 690.578 57.2353 690.578H57.2214Z" fill="var(--fill-0, #7F6857)"/>
</svg>
