<svg preserveAspectRatio="none" width="100%" height="100%" overflow="visible" style="display: block;" viewBox="0 0 136.82 47.5302" fill="none" xmlns="http://www.w3.org/2000/svg">
<path id="Vector" d="M136.82 39.0804C136.653 31.4505 130.413 25.3077 122.74 25.3077C121.323 25.3077 119.947 25.5162 118.654 25.9192C117.25 17.8864 110.259 11.7714 101.823 11.7714C96.3744 11.7714 91.5237 14.3285 88.3826 18.3033C82.6146 7.42136 71.1758 0 57.9859 0C44.7959 0 32.7456 7.82441 27.1444 19.1928C25.9908 19.026 24.8233 18.9287 23.6141 18.9287C11.6889 18.9287 1.80685 27.6704 0 39.0804V40.22C0 44.2503 2.94655 47.5302 6.60194 47.5302H130.218C133.859 47.5302 136.82 44.2642 136.82 40.22V39.0804Z" fill="var(--fill-0, #7BC928)"/>
</svg>
