<svg preserveAspectRatio="none" width="100%" height="100%" overflow="visible" style="display: block;" viewBox="0 0 99 117.846" fill="none" xmlns="http://www.w3.org/2000/svg">
<g id="Group">
<path id="Vector" d="M40.741 86.6505C40.741 86.6505 24.1244 82.3427 19.3973 73.689C14.6606 65.0258 16.2139 51.1154 13.7306 49.2462C11.2376 47.3769 28.4391 43.088 37.5001 58.3743C46.5612 73.67 40.741 86.6505 40.741 86.6505Z" fill="var(--fill-0, #A2CE57)"/>
<path id="Vector_2" d="M52.1128 101.69C52.1128 101.69 62.9189 107.26 69.5733 104.935C76.2276 102.62 82.1149 94.5735 84.3202 94.7633C86.5255 94.9531 79.5548 84.5915 67.4351 88.3585C55.3154 92.1255 52.1128 101.69 52.1128 101.69Z" fill="var(--fill-0, #A2CE57)"/>
<path id="Vector_3" d="M48.824 62.815C48.824 62.815 30.2417 47.5572 39.6959 30.0696C49.15 12.582 62.8614 0 62.8614 0C62.8614 0 72.0087 24.2151 67.3104 40.7538C62.6121 57.2926 48.824 62.815 48.824 62.815Z" fill="var(--fill-0, #A2CE57)"/>
<path id="Vector_4" d="M54.8935 79.7143C54.8935 79.7143 57.0892 61.3917 70.4554 55.5561C83.8216 49.7301 99 57.359 99 57.359C99 57.359 96.6125 58.4312 95.366 61.0121C94.1195 63.5836 82.1532 84.174 70.4075 84.2499C58.6617 84.3353 54.8935 79.7143 54.8935 79.7143Z" fill="var(--fill-0, #A2CE57)"/>
<path id="Vector_5" d="M40.0315 100.4C40.0315 100.4 35.2469 86.7833 23.6354 83.0163C12.0142 79.2399 0 86.8308 0 86.8308C0 86.8308 2.08068 87.533 3.32717 89.573C4.57366 91.6131 16.2523 107.801 26.042 106.909C35.8318 106.026 40.0219 100.39 40.0219 100.39L40.0315 100.4Z" fill="var(--fill-0, #A2CE57)"/>
<path id="Vector_6" d="M48.498 117.84C48.2967 117.792 48.1145 117.659 48.0282 117.451C47.9131 117.176 45.3339 110.496 46.6379 86.7169C47.9419 63.0427 56.2454 18.2657 56.3317 17.8197C56.3988 17.4686 56.7344 17.2314 57.0892 17.2978C57.0892 17.2978 57.0988 17.2978 57.1084 17.2978C57.4536 17.3737 57.6741 17.7059 57.607 18.0474C57.5207 18.4934 49.2267 63.185 47.9323 86.7833C46.6475 110.154 49.2076 116.9 49.2267 116.967C49.361 117.299 49.198 117.678 48.8624 117.802C48.7377 117.849 48.6035 117.859 48.4788 117.83L48.498 117.84Z" fill="var(--fill-0, #659928)"/>
<path id="Vector_7" d="M47.1652 94.602L46.542 93.9473C46.4461 93.8524 37.4043 84.2783 31.5937 71.1176C31.4499 70.7855 31.5937 70.4059 31.9293 70.2636C32.2553 70.1213 32.6484 70.2636 32.7923 70.5957C37.644 81.5741 44.7777 90.019 46.8872 92.3912C48.2583 89.9051 52.4676 82.4186 55.4112 78.6231C62.2478 69.7986 77.685 61.3537 78.337 60.9931C78.6535 60.8224 79.0466 60.9362 79.2288 61.2493C79.4014 61.5625 79.2863 61.9515 78.9699 62.1318C78.8165 62.2172 63.1203 70.8044 56.4564 79.4107C53.0429 83.8134 47.6638 93.7101 47.6063 93.805L47.1748 94.5925L47.1652 94.602Z" fill="var(--fill-0, #659928)"/>
<path id="Vector_8" d="M40.0219 100.978C31.68 99.1566 22.8587 95.437 22.3793 95.2377C22.0437 95.0954 21.8903 94.7159 22.0341 94.3933C22.1779 94.0612 22.5615 93.9093 22.8875 94.0517C23.0409 94.1181 37.7878 100.324 46.9735 100.665C56.1208 101.007 69.4199 94.8108 69.5541 94.7443C69.8801 94.5925 70.2732 94.7254 70.4266 95.048C70.58 95.3706 70.4458 95.7596 70.1198 95.9114C69.5637 96.1771 56.3988 102.307 46.9255 101.956C44.8065 101.88 42.4286 101.51 40.0123 100.978H40.0219Z" fill="var(--fill-0, #659928)"/>
</g>
</svg>
