<svg preserveAspectRatio="none" width="100%" height="100%" overflow="visible" style="display: block;" viewBox="0 0 74.7487 12.3653" fill="none" xmlns="http://www.w3.org/2000/svg">
<g id="Group">
<path id="Vector" d="M25.1959 5.97785H54.6206C56.2658 5.97785 57.6017 4.63837 57.6017 2.98893C57.6017 1.33948 56.2658 0 54.6206 0H12.2999C10.6547 0 9.31874 1.33948 9.31874 2.98893C9.31874 4.63837 10.6547 5.97785 12.2999 5.97785H2.95903C1.32494 5.97785 0 7.30627 0 8.94464C0 10.583 1.32494 11.9114 2.95903 11.9114H25.1959C26.83 11.9114 28.155 10.583 28.155 8.94464C28.155 7.30627 26.83 5.97785 25.1959 5.97785Z" fill="var(--fill-0, #7F6857)"/>
<path id="Vector_2" d="M72.8165 8.49077H49.354C48.283 8.49077 47.4218 9.35424 47.4218 10.428C47.4218 11.5018 48.283 12.3653 49.354 12.3653H72.8165C73.8875 12.3653 74.7487 11.5018 74.7487 10.428C74.7487 9.35424 73.8875 8.49077 72.8165 8.49077Z" fill="var(--fill-0, #7F6857)"/>
</g>
</svg>
