<svg preserveAspectRatio="none" width="100%" height="100%" overflow="visible" style="display: block;" viewBox="0 0 64.9133 10.5988" fill="none" xmlns="http://www.w3.org/2000/svg">
<g id="Group">
<path id="Vector" d="M21.8807 5.12387H47.4337C48.8624 5.12387 50.0226 3.97575 50.0226 2.56194C50.0226 1.14813 48.8624 0 47.4337 0H10.6815C9.25279 0 8.09259 1.14813 8.09259 2.56194C8.09259 3.97575 9.25279 5.12387 10.6815 5.12387H2.56969C1.15061 5.12387 0 6.26251 0 7.66684C0 9.07116 1.15061 10.2098 2.56969 10.2098H21.8807C23.2998 10.2098 24.4504 9.07116 24.4504 7.66684C24.4504 6.26251 23.2998 5.12387 21.8807 5.12387Z" fill="var(--fill-0, #7F6857)"/>
<path id="Vector_2" d="M63.2353 7.2778H42.86C41.93 7.2778 41.1821 8.01791 41.1821 8.93831C41.1821 9.85872 41.93 10.5988 42.86 10.5988H63.2353C64.1654 10.5988 64.9133 9.85872 64.9133 8.93831C64.9133 8.01791 64.1654 7.2778 63.2353 7.2778Z" fill="var(--fill-0, #7F6857)"/>
</g>
</svg>
