<svg preserveAspectRatio="none" width="100%" height="100%" overflow="visible" style="display: block;" viewBox="0 0 21.0568 143.457" fill="none" xmlns="http://www.w3.org/2000/svg">
<path id="Vector" d="M8.53156 143.457C7.53184 143.457 6.57791 142.845 6.14292 141.822C1.44958 130.737 4.99057 124.671 8.74523 118.25C13.263 110.516 18.8874 100.889 13.8507 76.705C10.8744 62.3894 7.45552 52.6738 4.71584 44.8595C-1.12985 28.2318 -3.79322 20.651 10.4013 1.08289C11.2789 -0.125518 12.9196 -0.359143 14.0643 0.567303C15.2091 1.49375 15.4304 3.2258 14.5528 4.43421C2.11352 21.5775 4.00611 26.9589 9.62285 42.9341C12.4236 50.9015 15.9112 60.8185 18.9637 75.5127C24.4507 101.88 17.9488 113.014 13.202 121.142C9.5618 127.378 7.35631 131.148 10.9278 139.566C11.5154 140.96 10.9278 142.587 9.60759 143.208C9.26418 143.369 8.89786 143.449 8.54682 143.449L8.53156 143.457Z" fill="var(--fill-0, #63AD51)"/>
</svg>
