<svg preserveAspectRatio="none" width="100%" height="100%" overflow="visible" style="display: block;" viewBox="0 0 407.016 145.723" fill="none" xmlns="http://www.w3.org/2000/svg">
<g id="clippath">
<path id="Vector" d="M366.762 3.39425C366.664 3.0991 366.533 2.80393 366.418 2.50878C325.918 39.8126 267.412 63.2443 202.337 63.2443C137.261 63.2443 76.1671 38.7632 35.5851 0C14.4831 10.7894 0 32.7126 0 58.0628C0 94.0876 29.1791 123.275 65.1574 123.275C73.9389 123.275 82.3109 121.52 89.962 118.372C103.446 135.048 124.056 145.723 147.173 145.723C173.371 145.723 196.357 131.998 209.398 111.37C220.883 121.487 235.923 127.62 252.421 127.62C268.92 127.62 284.893 121.094 296.493 110.436C308.224 121.832 324.214 128.866 341.859 128.866C377.837 128.866 407.016 99.6627 407.016 63.6543C407.016 36.4676 390.387 13.1834 366.778 3.39425H366.762Z" fill="var(--fill-0, black)"/>
</g>
</svg>
