<svg preserveAspectRatio="none" width="100%" height="100%" overflow="visible" style="display: block;" viewBox="0 0 101.981 35.2985" fill="none" xmlns="http://www.w3.org/2000/svg">
<g id="Vector" opacity="0.5" style="mix-blend-mode:multiply">
<path d="M74.2369 22.1264C78.1032 17.5909 92.5922 6.42733 96.0318 2.10573C96.7817 1.15977 96.4326 0.434104 95.2688 0C91.131 4.4771 73.3189 12.0707 63.0389 12.7704C52.7589 13.4702 70.9073 19.6384 66.4656 26.1888C62.0238 32.7457 43.5716 21.0379 37.9661 21.9773C32.3607 22.9168 43.3389 31.1583 32.8262 28.301C22.3134 25.4437 8.0702 25.0225 0.0401932 24.893C0.0401932 24.893 0.0337278 24.9059 0.0337278 24.9124C0.0337278 24.9254 0.020797 24.9772 0.00786625 25.0549C-0.063253 25.5279 0.344066 25.9296 1.38499 26.2018C8.53571 28.0742 30.3887 25.975 32.3865 35.2985H76.3835C81.6592 25.3465 95.1072 28.0742 100.726 24.6403C106.344 21.2063 92.3271 15.2779 74.2628 22.1458L74.2369 22.1264Z" fill="var(--fill-0, #7EB24D)"/>
</g>
</svg>
