<svg preserveAspectRatio="none" width="100%" height="100%" overflow="visible" style="display: block;" viewBox="0 0 45 58" fill="none" xmlns="http://www.w3.org/2000/svg">
<g id="Isolation_Mode" clip-path="url(#clip0_0_4)">
<path id="Vector" d="M27.1041 50.5385C33.0017 50.7311 38.5461 45.5212 41.3011 39.2152C41.3431 39.12 41.4906 38.9447 41.362 38.8603C38.5932 42.9612 34.8892 46.0308 30.7849 47.564C28.7885 48.3095 26.72 48.5606 24.7202 49.2054C21.6882 50.1814 18.7257 52.432 16.3127 54.8622C19.0034 54.1199 21.4816 53.5346 24.2101 54.4618C25.6991 54.9671 26.9712 55.8836 28.3873 56.5956C28.4662 56.7243 27.2164 57.2231 27.0826 57.2718C21.9231 59.1307 15.6449 57.248 11.1814 53.7207L8.86267 51.6226C10.0062 51.918 11.0528 52.5023 12.2418 52.5986C16.0238 52.9081 18.0485 49.7757 18.8406 45.4584C19.2692 43.1224 19.4072 41.1423 20.2378 38.8961C21.3411 35.9119 23.3581 33.5823 24.6353 30.7161C25.3014 29.2196 25.8731 27.5988 26.0771 25.886C26.6755 26.9669 27.1478 28.222 27.4692 29.4793C28.6925 34.2651 28.689 40.6305 26.948 45.2063C26.8229 45.5353 26.5649 45.8458 26.5049 46.2137C26.582 46.3132 27.2918 45.5666 27.4015 45.4541C30.3486 42.4364 31.5795 37.7816 30.4446 33.13C31.6696 34.8764 32.3836 37.022 32.5842 39.3483C32.6613 40.2486 32.6622 40.9519 32.5945 41.8489C32.585 41.969 32.5156 42.2373 32.6691 42.2124C32.8336 41.6249 33.1362 41.0341 33.2734 40.4336C34.1143 36.7591 32.3759 35.2399 31.4055 32.1854C30.5783 29.5821 30.4283 26.7299 29.5162 24.0823C29.2831 23.4071 28.9599 22.7785 28.731 22.1011C31.6524 23.2405 34.9638 25.7345 36.0756 29.5334C36.8617 32.2179 36.6499 35.9043 35.7944 38.5357L34.5549 41.4572C37.094 38.6266 38.8041 34.5215 37.8029 30.1642C37.3571 28.222 36.2222 26.5817 35.0675 25.2389C37.766 26.0288 40.2819 28.5434 40.9188 32.0686C41.1546 33.3735 41.05 34.6232 41.0191 35.9433C42.8947 32.1714 43.4905 27.1779 42.1052 23.0013C40.5142 18.2059 35.551 15.2552 31.5564 15.7757C32.099 16.1079 32.7651 16.1209 33.3377 16.3383C34.4812 16.7722 35.827 17.6919 36.8068 18.5532C39.2936 20.7399 41.02 24.0228 41.0191 27.9396C39.1213 24.1396 35.257 24.9998 32.6073 22.6659C31.3292 21.5406 30.8175 20.4164 29.8411 19.0228C28.7636 17.4842 27.537 16.1685 26.0771 15.2358C29.9414 11.9638 35.113 11.9789 39.0913 14.9653C37.1634 9.74133 33.2348 5.24125 28.4739 5.01836L30.3615 5.93157C31.5375 6.67383 35.0907 10.5453 35.3255 12.099C35.3581 12.3154 35.3453 12.2548 35.2381 12.2105C33.1045 11.307 31.0566 12.4702 28.9428 11.5072C26.7132 10.4912 24.9122 7.66062 23.6075 5.2683L22.4794 3.07182C23.3101 6.51153 24.5642 10.0475 26.9721 12.1564C27.1495 12.3122 27.6724 12.5535 27.7024 12.5881C27.753 12.6476 27.753 12.8229 27.5815 12.7958C26.2477 12.5827 25.2182 12.2624 24.151 11.1782C22.29 9.28796 21.7842 6.31893 20.2104 4.15059C19.2915 2.88464 17.9894 1.6176 16.6547 1.23241C16.6298 0.94784 16.659 1.06145 16.7807 1.01492C26.1637 -2.5438 36.9294 3.62473 41.8155 14.0672C48.392 28.1225 44.2705 44.3721 34.1006 53.3755C33.6634 53.7629 32.171 55.0667 31.7476 55.1695C31.2812 55.2831 30.6709 54.6642 30.316 54.3212C29.5094 53.541 28.7182 52.4385 27.9596 51.5653C27.8593 51.4495 26.9618 50.6975 27.1023 50.5406L27.1041 50.5385ZM25.9048 40.7528C25.946 40.1436 25.8748 39.476 25.9048 38.8603L25.4514 41.2613C25.1891 42.2827 24.823 43.2858 24.313 44.1492C24.2007 44.3396 23.1455 45.862 22.9929 45.6705C24.2358 43.4264 23.6161 40.7712 23.8604 38.2782C23.9735 37.1216 24.2624 35.8848 24.6319 34.819C24.8282 34.2532 25.3648 33.3096 25.4745 32.8552C25.4882 32.7989 25.4985 32.6788 25.4334 32.6961C24.7313 33.6873 23.8895 34.9327 23.4644 36.1575C22.5206 38.8766 23.1335 41.7753 22.4177 44.5669C22.1134 45.7527 21.5562 46.772 20.9373 47.7242C22.8352 47.0685 24.5984 45.3329 25.4051 43.0401C25.6477 42.3509 25.8534 41.5037 25.904 40.7506L25.9048 40.7528Z" fill="var(--fill-0, #226217)"/>
<path id="Vector_2" d="M10.704 51.7276C7.42685 51.3089 4.25604 45.796 2.76792 42.3931C-2.92651 29.37 0.443176 12.5394 10.3259 4.53794C10.8257 4.13327 12.1372 3.05559 12.6747 3.05992C13.6682 3.06749 15.1117 5.40463 15.8438 6.20424L16.7413 7.50157C11.5955 7.99929 6.9211 11.8448 3.99716 17.0925C3.67571 17.6703 3.28139 18.2881 3.12538 18.9644C5.89759 15.0702 9.50301 12.31 13.4693 10.7779C15.6389 9.94041 17.8788 9.63962 20.0321 8.89952C20.5233 8.73073 21.1028 8.5641 21.4945 8.15185C22.4546 10.239 23.7284 11.9454 25.5474 12.8164C25.5294 14.7272 25.1582 16.743 24.5487 18.4948C22.8917 23.2621 18.8809 26.665 18.6237 32.2623C18.1128 31.5871 17.7056 30.4953 17.4108 29.6319C15.5035 24.0509 15.5352 17.3089 17.8539 11.9346C17.7948 11.8631 17.0816 12.5004 16.971 12.6022C13.7119 15.5755 12.865 20.252 14.0856 25.0171C12.1946 22.5328 11.5209 18.9893 11.688 15.6101C11.0134 16.637 10.7554 18.3271 10.8437 19.6514C11.0083 22.1228 12.3541 24.0119 13.099 26.2106C13.8533 28.4363 14.1139 30.8145 14.792 33.0478C15.0577 33.9242 15.4452 34.739 15.7135 35.6132C13.1976 34.4782 10.5282 32.8584 9.0144 29.9619C7.02225 26.1489 7.47314 21.0548 9.37614 17.3414C9.21499 17.2937 9.17213 17.455 9.07612 17.5567C5.79044 21.0353 5.30612 26.8912 8.21891 30.966L9.46101 32.4787C8.19405 32.0967 6.95882 31.5525 5.94988 30.4791C3.94573 28.3486 3.23596 25.1102 3.55227 21.8815L2.68135 23.8615C0.370313 30.8914 3.03023 39.2477 8.84467 41.6368C9.8999 42.0707 11.5792 42.3855 12.6747 42.2092C12.793 42.1897 12.943 42.1291 12.8015 41.9928C8.56694 41.2375 4.32204 36.7829 3.81029 31.2322C3.77772 30.8816 3.64656 30.0225 3.89344 29.8829C3.95087 30.2465 4.20632 30.6371 4.40605 30.9119C6.08446 33.2252 8.31149 33.0889 10.4014 34.2629C13.7402 36.1402 14.8863 40.1176 17.7408 42.4039C18.0339 42.6387 18.3683 42.5608 18.0699 42.9687C15.8841 45.9594 10.2702 46.3078 7.57515 44.2109L5.86416 42.8584C7.17055 45.9702 8.96468 49.4251 11.4403 51.2255C11.6743 51.3954 12.1784 51.4982 12.2024 51.7774C12.1878 51.9299 12.0935 51.7243 12.0738 51.7243C11.6417 51.7243 11.1188 51.7774 10.704 51.7243V51.7276ZM18.3691 17.3965C18.2954 18.2243 18.4231 19.2002 18.3691 20.0453L18.8217 17.3186C19.2409 15.4944 20.0818 13.8356 21.2802 12.692C20.3304 15.3645 20.7916 18.326 20.3844 21.1295C20.1452 22.7763 19.5075 24.3712 18.8843 25.8319C18.8637 26.0656 18.9117 26.0256 19.0129 25.886C19.6978 24.9414 20.5876 23.38 20.9793 22.2061C21.9977 19.1559 21.2913 16.0126 22.2206 12.8532C22.3217 12.5091 22.908 11.1166 22.9089 11.0148C22.9097 10.8677 22.8232 10.7324 22.7032 10.7552C22.6346 10.7682 21.6677 11.5082 21.5116 11.6316C19.9352 12.8835 18.5851 14.975 18.3691 17.3955V17.3965Z" fill="var(--fill-0, #226217)"/>
</g>
<defs>
<clipPath id="clip0_0_4">
<rect width="45" height="58" fill="white"/>
</clipPath>
</defs>
</svg>
