<svg preserveAspectRatio="none" width="100%" height="100%" overflow="visible" style="display: block;" viewBox="0 0 294.707 412.506" fill="none" xmlns="http://www.w3.org/2000/svg">
<path id="Vector" d="M288.17 230.513C284.549 230.513 281.617 233.448 281.617 237.072V282.722C281.617 300.743 268.575 315.779 251.455 318.878V185.273C264.086 184.83 275.915 179.698 284.893 170.712C287.449 168.154 287.449 164.006 284.893 161.431C282.338 158.873 278.193 158.873 275.62 161.431C269.116 167.941 260.58 171.663 251.455 172.106V131.063C251.455 127.44 248.522 124.505 244.901 124.505C241.28 124.505 238.348 127.44 238.348 131.063V170.401C223.619 165.613 212.937 151.757 212.937 135.442V81.9536C234.186 76.2474 249.882 56.8166 249.882 33.7784V6.55891C249.882 2.93511 246.949 0 243.328 0C239.708 0 236.775 2.93511 236.775 6.55891V33.7784C236.775 49.5034 226.847 62.9492 212.937 68.1963V37.7301C212.937 34.1063 210.004 31.1712 206.384 31.1712C202.763 31.1712 199.83 34.1063 199.83 37.7301V70.5411C190.098 70.4919 180.956 66.6714 174.075 59.7845C171.519 57.2265 167.374 57.2265 164.802 59.7845C162.246 62.3425 162.246 66.491 164.802 69.0654C174.157 78.4282 186.592 83.6097 199.814 83.6753V135.474C199.814 159.07 216.296 178.894 238.331 184.027V318.911C221.194 315.812 208.169 300.775 208.169 282.755C208.169 279.131 205.237 276.196 201.616 276.196C197.995 276.196 195.062 279.131 195.062 282.755C195.062 307.777 213.576 328.552 237.611 332.094C232.45 370.037 199.879 399.389 160.559 399.389C126.104 399.389 96.8267 376.842 86.6362 345.72C128.168 342.572 161.001 307.777 161.001 265.423C161.001 261.799 158.068 258.864 154.448 258.864C150.827 258.864 147.894 261.799 147.894 265.423C147.894 301.579 119.321 331.16 83.5888 332.783C83.0482 329.11 82.7697 325.355 82.7697 321.534V245.303C106.1 242.089 124.122 222.036 124.122 197.817V159.759C124.122 156.135 121.189 153.2 117.568 153.2C113.948 153.2 111.015 156.135 111.015 159.759V197.817C111.015 214.772 98.8255 228.922 82.7697 232.005V106.664C82.7697 103.041 79.837 100.105 76.2162 100.105C72.5955 100.105 69.6628 103.041 69.6628 106.664V232.005C53.607 228.922 41.4176 214.772 41.4176 197.817C41.4176 194.193 38.4849 191.258 34.8642 191.258C31.2434 191.258 28.3108 194.193 28.3108 197.817C28.3108 222.036 46.3327 242.089 69.6628 245.303V321.534C69.6628 325.109 69.8922 328.618 70.2854 332.078C37.9607 327.142 13.1068 299.119 13.1068 265.406C13.1068 261.783 10.1742 258.848 6.55341 258.848C2.93265 258.848 0 261.783 0 265.406C0 307.269 32.0626 341.752 72.9068 345.606C83.4742 384.123 118.748 412.506 160.542 412.506C207.039 412.506 245.458 377.383 250.783 332.275C275.489 329.339 294.707 308.269 294.707 282.771V237.121C294.707 233.497 291.775 230.562 288.154 230.562L288.17 230.513Z" fill="var(--fill-0, #7F6857)"/>
</svg>
