<svg preserveAspectRatio="none" width="100%" height="100%" overflow="visible" style="display: block;" viewBox="0 0 53.3924 48.2921" fill="none" xmlns="http://www.w3.org/2000/svg">
<g id="Vector" opacity="0.5" style="mix-blend-mode:multiply">
<path d="M41.5895 9.17267C35.7089 18.1116 29.6532 27.7934 25.8746 33.903C25.3991 27.109 24.3064 12.8618 22.8634 2.44549C23.4473 11.8519 19.4268 17.3271 17.2164 11.0423C17.2164 11.0423 17.1747 11.0923 17.1079 11.1758C17.1913 22.2932 17.867 33.6526 17.867 33.6526C17.0579 33.3605 16.2321 33.06 15.4063 32.7679C16.9745 35.7726 13.9883 35.1883 6.89822 33.0684C9.96781 35.2551 14.7724 37.9593 18.6594 40.0376C17.0996 40.0042 15.3146 39.9875 13.4545 39.9875C20.9115 42.3161 13.004 47.4074 0 44.987C7.79074 47.6578 24.8236 48.2921 24.8236 48.2921L28.6022 42.2076C34.6579 32.384 46.5609 12.8367 53.3924 0C49.8474 6.39333 40.1548 15.2488 41.5728 9.18102L41.5895 9.17267Z" fill="var(--fill-0, #6AB23B)"/>
</g>
</svg>
