<svg preserveAspectRatio="none" width="100%" height="100%" overflow="visible" style="display: block;" viewBox="0 0 101.996 76.9934" fill="none" xmlns="http://www.w3.org/2000/svg">
<path id="Vector" d="M74.2772 63.8407C78.1435 59.3053 92.6324 48.1417 96.072 43.8201C99.5116 39.492 79.9344 39.8095 64.0942 50.7722C64.0942 50.7722 79.5917 12.8043 79.5788 1.48521C79.5659 -9.83389 50.4393 47.2605 50.4393 47.2605C50.4393 47.2605 46.3985 -1.00927 43.2046 5.19129C40.0107 11.3919 38.7046 52.0875 38.7046 52.0875C29.0454 39.6151 11.6599 30.1296 16.0241 36.991C20.3882 43.859 29.8988 56.3897 30.6876 61.6637C16.0629 58.1909 -5.74487 66.0242 1.39938 67.8967C8.5501 69.7692 30.4031 67.6699 32.4009 76.9934H76.3978C81.6736 67.0414 95.1216 69.7691 100.74 66.3352C106.358 62.9012 92.3415 56.9728 74.2772 63.8407Z" fill="var(--fill-0, #669E51)"/>
</svg>
