<svg preserveAspectRatio="none" width="100%" height="100%" overflow="visible" style="display: block;" viewBox="0 0 49 58" fill="none" xmlns="http://www.w3.org/2000/svg">
<g id="Isolation_Mode" clip-path="url(#clip0_0_4)">
<path id="Vector" d="M29.5133 50.5385C35.9351 50.7311 41.9724 45.5212 44.9724 39.2152C45.0181 39.12 45.1786 38.9447 45.0386 38.8603C42.0237 42.9612 37.9905 46.0308 33.5214 47.564C31.3475 48.3095 29.0951 48.5606 26.9175 49.2054C23.6161 50.1814 20.3902 52.432 17.7627 54.8622C20.6926 54.1199 23.3911 53.5346 26.3621 54.4618C27.9835 54.9671 29.3686 55.8836 30.9106 56.5956C30.9965 56.7243 29.6356 57.2231 29.49 57.2718C23.8718 59.1307 17.0356 57.248 12.1753 53.7207L9.65047 51.6226C10.8956 51.918 12.0353 52.5023 13.3299 52.5986C17.4481 52.9081 19.6528 49.7757 20.5153 45.4584C20.982 43.1224 21.1323 41.1423 22.0367 38.8961C23.238 35.9119 25.4343 33.5823 26.8251 30.7161C27.5504 29.2196 28.1729 27.5988 28.3951 25.886C29.0466 26.9669 29.5609 28.222 29.9109 29.4793C31.2429 34.2651 31.2392 40.6305 29.3434 45.2063C29.2072 45.5353 28.9262 45.8458 28.8609 46.2137C28.9449 46.3132 29.7177 45.5666 29.8372 45.4541C33.0462 42.4364 34.3866 37.7816 33.1508 33.13C34.4846 34.8764 35.2621 37.022 35.4806 39.3483C35.5646 40.2486 35.5655 40.9519 35.4918 41.8489C35.4815 41.969 35.4059 42.2373 35.573 42.2124C35.7522 41.6249 36.0817 41.0341 36.231 40.4336C37.1467 36.7591 35.2537 35.2399 34.1971 32.1854C33.2964 29.5821 33.1331 26.7299 32.1399 24.0823C31.886 23.4071 31.5341 22.7785 31.2849 22.1011C34.466 23.2405 38.0717 25.7345 39.2823 29.5334C40.1383 32.2179 39.9077 35.9043 38.9762 38.5357L37.6265 41.4572C40.3912 38.6266 42.2533 34.5215 41.1631 30.1642C40.6778 28.222 39.4419 26.5817 38.1846 25.2389C41.123 26.0288 43.8625 28.5434 44.5561 32.0686C44.8127 33.3735 44.6989 34.6232 44.6653 35.9433C46.7076 32.1714 47.3563 27.1779 45.8479 23.0013C44.1155 18.2059 38.7111 15.2552 34.3614 15.7757C34.9523 16.1079 35.6775 16.1209 36.301 16.3383C37.5462 16.7722 39.0116 17.6919 40.0785 18.5532C42.7863 20.7399 44.6662 24.0228 44.6653 27.9396C42.5987 24.1396 38.3909 24.9998 35.5058 22.6659C34.1141 21.5406 33.5568 20.4164 32.4937 19.0228C31.3204 17.4842 29.9847 16.1685 28.3951 15.2358C32.6029 11.9638 38.2341 11.9789 42.566 14.9653C40.4668 9.74133 36.189 5.24125 31.0049 5.01836L33.0602 5.93157C34.3409 6.67383 38.2098 10.5453 38.4656 12.099C38.5011 12.3154 38.4871 12.2548 38.3704 12.2105C36.0471 11.307 33.8172 12.4702 31.5155 11.5072C29.0877 10.4912 27.1266 7.66062 25.706 5.2683L24.4776 3.07182C25.3821 6.51153 26.7476 10.0475 29.3696 12.1564C29.5628 12.3122 30.1322 12.5535 30.1648 12.5881C30.2199 12.6476 30.2199 12.8229 30.0332 12.7958C28.5808 12.5827 27.4598 12.2624 26.2977 11.1782C24.2713 9.28796 23.7206 6.31893 22.0069 4.15059C21.0063 2.88464 19.5884 1.6176 18.1351 1.23241C18.108 0.94784 18.1398 1.06145 18.2723 1.01492C28.4894 -2.5438 40.212 3.62473 45.5324 14.0672C52.6935 28.1225 48.2057 44.3721 37.1318 53.3755C36.6557 53.7629 35.0307 55.0667 34.5696 55.1695C34.0618 55.2831 33.3972 54.6642 33.0108 54.3212C32.1324 53.541 31.2709 52.4385 30.4449 51.5653C30.3356 51.4495 29.3584 50.6975 29.5114 50.5406L29.5133 50.5385ZM28.2075 40.7528C28.2523 40.1436 28.1748 39.476 28.2075 38.8603L27.7137 41.2613C27.4281 42.2827 27.0295 43.2858 26.4741 44.1492C26.3519 44.3396 25.2029 45.862 25.0367 45.6705C26.3901 43.4264 25.7153 40.7712 25.9813 38.2782C26.1045 37.1216 26.4191 35.8848 26.8214 34.819C27.0351 34.2532 27.6194 33.3096 27.7389 32.8552C27.7538 32.7989 27.765 32.6788 27.6941 32.6961C26.9296 33.6873 26.013 34.9327 25.5501 36.1575C24.5224 38.8766 25.1898 41.7753 24.4104 44.5669C24.079 45.7527 23.4723 46.772 22.7984 47.7242C24.865 47.0685 26.785 45.3329 27.6633 43.0401C27.9275 42.3509 28.1515 41.5037 28.2065 40.7506L28.2075 40.7528Z" fill="var(--fill-0, white)"/>
<path id="Vector_2" d="M11.6554 51.7276C8.08702 51.3089 4.63435 45.796 3.01396 42.3931C-3.18664 29.37 0.48257 12.5394 11.2438 4.53794C11.788 4.13327 13.2161 3.05559 13.8013 3.05992C14.8831 3.06749 16.455 5.40463 17.2521 6.20424L18.2294 7.50157C12.6262 7.99929 7.53631 11.8448 4.35246 17.0925C4.00244 17.6703 3.57307 18.2881 3.40319 18.9644C6.42182 15.0702 10.3477 12.31 14.6666 10.7779C17.029 9.94041 19.468 9.63962 21.8127 8.89952C22.3476 8.73073 22.9786 8.5641 23.4051 8.15185C24.4505 10.239 25.8376 11.9454 27.8183 12.8164C27.7987 14.7272 27.3945 16.743 26.7308 18.4948C24.9266 23.2621 20.5592 26.665 20.2791 32.2623C19.7228 31.5871 19.2795 30.4953 18.9584 29.6319C16.8816 24.0509 16.9161 17.3089 19.4409 11.9346C19.3765 11.8631 18.5999 12.5004 18.4795 12.6022C14.9307 15.5755 14.0085 20.252 15.3377 25.0171C13.2786 22.5328 12.545 18.9893 12.727 15.6101C11.9924 16.637 11.7114 18.3271 11.8076 19.6514C11.9868 22.1228 13.4522 24.0119 14.2634 26.2106C15.0847 28.4363 15.3685 30.8145 16.1068 33.0478C16.3962 33.9242 16.8181 34.739 17.1102 35.6132C14.3707 34.4782 11.4641 32.8584 9.81568 29.9619C7.64645 26.1489 8.13742 21.0548 10.2096 17.3414C10.0341 17.2937 9.98743 17.455 9.88289 17.5567C6.30515 21.0353 5.77777 26.8912 8.94948 30.966L10.302 32.4787C8.92241 32.0967 7.57738 31.5525 6.47876 30.4791C4.29646 28.3486 3.5236 25.1102 3.86803 21.8815L2.91969 23.8615C0.40323 30.8914 3.29958 39.2477 9.63087 41.6368C10.7799 42.0707 12.6084 42.3855 13.8013 42.2092C13.9301 42.1897 14.0935 42.1291 13.9395 41.9928C9.32844 41.2375 4.70622 36.7829 4.14898 31.2322C4.11351 30.8816 3.9707 30.0225 4.23952 29.8829C4.30206 30.2465 4.58022 30.6371 4.7977 30.9119C6.6253 33.2252 9.05029 33.0889 11.3259 34.2629C14.9615 36.1402 16.2095 40.1176 19.3177 42.4039C19.637 42.6387 20.001 42.5608 19.6762 42.9687C17.296 45.9594 11.1831 46.3078 8.2485 44.2109L6.38542 42.8584C7.80793 45.9702 9.76154 49.4251 12.4572 51.2255C12.712 51.3954 13.2609 51.4982 13.287 51.7774C13.2711 51.9299 13.1685 51.7243 13.147 51.7243C12.6766 51.7243 12.1072 51.7774 11.6554 51.7243V51.7276ZM20.0019 17.3965C19.9217 18.2243 20.0607 19.2002 20.0019 20.0453L20.4948 17.3186C20.9512 15.4944 21.8669 13.8356 23.1718 12.692C22.1376 15.3645 22.6397 18.326 22.1964 21.1295C21.9359 22.7763 21.2415 24.3712 20.5629 25.8319C20.5405 26.0656 20.5928 26.0256 20.7029 25.886C21.4487 24.9414 22.4176 23.38 22.8441 22.2061C23.953 19.1559 23.1839 16.0126 24.1957 12.8532C24.3059 12.5091 24.9443 11.1166 24.9452 11.0148C24.9462 10.8677 24.8519 10.7324 24.7212 10.7552C24.6465 10.7682 23.5937 11.5082 23.4238 11.6316C21.7073 12.8835 20.2371 14.975 20.0019 17.3955V17.3965Z" fill="var(--fill-0, white)"/>
</g>
<defs>
<clipPath id="clip0_0_4">
<rect width="49" height="58" fill="white"/>
</clipPath>
</defs>
</svg>
