<svg preserveAspectRatio="none" width="100%" height="100%" overflow="visible" style="display: block;" viewBox="0 0 170.302 59.1626" fill="none" xmlns="http://www.w3.org/2000/svg">
<path id="Vector" d="M170.302 48.6698C170.094 39.1638 162.324 31.52 152.776 31.52C151.011 31.52 149.301 31.7841 147.689 32.2705C145.951 22.2642 137.237 14.6621 126.729 14.6621C119.947 14.6621 113.901 17.8447 110.009 22.7923C102.837 9.24198 88.591 0 72.1765 0C55.762 0 40.7652 9.74231 33.788 23.8902C32.3564 23.6817 30.8971 23.5705 29.396 23.5705C14.5521 23.5705 2.25161 34.4385 0 48.6559V50.0735C0 55.0906 3.66929 59.1626 8.2142 59.1626H162.088C166.619 59.1626 170.302 55.0906 170.302 50.0735V48.6559V48.6698Z" fill="var(--fill-0, #659928)"/>
</svg>
