<svg preserveAspectRatio="none" width="100%" height="100%" overflow="visible" style="display: block;" viewBox="0 0 50.9799 20.1921" fill="none" xmlns="http://www.w3.org/2000/svg">
<g id="Vector" opacity="0.5" style="mix-blend-mode:multiply">
<path d="M37.1106 12.6571C39.0433 10.0627 46.2863 3.67669 48.0057 1.20456C48.3806 0.663435 48.2061 0.248325 47.6243 0C45.5558 2.56108 36.6516 6.90491 31.5128 7.30519C26.3739 7.70548 35.4461 11.2339 33.2257 14.981C31.0053 18.7318 21.7812 12.0345 18.979 12.5719C16.1769 13.1093 21.6648 17.8238 16.4096 16.1893C11.1544 14.5548 4.03424 14.3139 0.0200923 14.2398C0.0200923 14.2398 0.0168603 14.2472 0.0168603 14.2509C0.0168603 14.2583 0.0103963 14.2879 0.00393229 14.3324C-0.0316198 14.603 0.171997 14.8328 0.69235 14.9884C4.26695 16.0596 15.1911 14.8587 16.1898 20.1921H38.1836C40.8209 14.4992 47.5435 16.0596 50.3521 14.0952C53.1607 12.1308 46.1537 8.73955 37.1235 12.6683L37.1106 12.6571Z" fill="var(--fill-0, #7EB24D)"/>
</g>
</svg>
