<svg preserveAspectRatio="none" width="100%" height="100%" overflow="visible" style="display: block;" viewBox="0 0 18.0155 9.63697" fill="none" xmlns="http://www.w3.org/2000/svg">
<g id="Left">
<path id="Vector" d="M18.0155 4.81849C18.0155 5.13896 17.8799 5.4463 17.6386 5.67291C17.3973 5.89951 17.07 6.02682 16.7287 6.02682H4.393L6.05689 7.58919C6.29129 7.81709 6.421 8.12232 6.41807 8.43914C6.41514 8.75596 6.2798 9.05902 6.04121 9.28306C5.80262 9.50709 5.47986 9.63417 5.14246 9.63693C4.80505 9.63968 4.47999 9.51789 4.23729 9.29778L0.37677 5.67278C0.135524 5.44618 0 5.13889 0 4.81849C0 4.49808 0.135524 4.19079 0.37677 3.96419L4.23729 0.339193C4.47999 0.119086 4.80505 -0.00270741 5.14246 4.56782e-05C5.47986 0.00279877 5.80262 0.129878 6.04121 0.353912C6.2798 0.577947 6.41514 0.881013 6.41807 1.19783C6.421 1.51466 6.29129 1.81988 6.05689 2.04778L4.393 3.61015H16.7287C17.07 3.61015 17.3973 3.73746 17.6386 3.96407C17.8799 4.19067 18.0155 4.49802 18.0155 4.81849Z" fill="var(--fill-0, white)"/>
</g>
</svg>
