<svg preserveAspectRatio="none" width="100%" height="100%" overflow="visible" style="display: block;" viewBox="0 0 52.7792 135.175" fill="none" xmlns="http://www.w3.org/2000/svg">
<g id="Vector" opacity="0.5" style="mix-blend-mode:multiply">
<path d="M48.7327 1.44452C48.0459 0.10722 46.4586 -0.392256 45.1918 0.332788C45.1231 0.373068 45.0696 0.421405 45.0086 0.461685C45.3596 0.703366 45.6649 1.02561 45.8786 1.44452C46.077 1.83927 50.7932 11.1923 49.7859 24.3962C48.8701 36.4642 42.8031 54.1633 19.1228 69.921C7.37797 77.7353 0.982826 86.8387 0.105211 96.9732C-1.42871 114.68 14.3149 130.229 14.4752 130.39C15.536 131.421 15.6047 133.169 14.6278 134.289C14.4752 134.458 14.3073 134.603 14.1318 134.724C14.5668 135.022 15.0628 135.175 15.5589 135.175C16.261 135.175 16.9707 134.877 17.482 134.281C18.4588 133.161 18.3901 131.421 17.3294 130.382C17.1691 130.229 1.42545 114.68 2.95937 96.9651C3.83698 86.8226 10.2398 77.7192 21.9769 69.9129C45.6573 54.1553 51.7166 36.4561 52.64 24.3882C53.6398 11.1843 48.9312 1.83121 48.7327 1.43647V1.44452Z" fill="var(--fill-0, #569644)"/>
</g>
</svg>
