<svg preserveAspectRatio="none" width="100%" height="100%" overflow="visible" style="display: block;" viewBox="0 0 55.1441 135.183" fill="none" xmlns="http://www.w3.org/2000/svg">
<path id="Vector" d="M17.9297 135.175C17.2963 135.175 16.6629 134.933 16.1668 134.45C15.4418 133.741 -1.62206 116.944 0.125539 96.5059C1.14815 84.5507 8.35986 74.0376 21.5622 65.2565C39.1069 53.5833 48.6081 39.6866 49.7986 23.9531C50.6762 12.3605 46.5476 4.15136 46.5018 4.0708C45.815 2.73349 46.2881 1.05783 47.5549 0.332788C48.8217 -0.392256 50.4091 0.10722 51.0959 1.44452C51.2943 1.83927 56.0106 11.1923 55.0032 24.3962C54.0874 36.4642 48.0204 54.1633 24.3401 69.921C12.5953 77.7353 6.20016 86.8387 5.32255 96.9732C3.78863 114.68 19.5323 130.229 19.6925 130.39C20.7533 131.421 20.822 133.169 19.8452 134.289C19.3262 134.877 18.6241 135.183 17.9221 135.183L17.9297 135.175Z" fill="var(--fill-0, #569644)"/>
</svg>
