<svg preserveAspectRatio="none" width="100%" height="100%" overflow="visible" style="display: block;" viewBox="0 0 181 753" fill="none" xmlns="http://www.w3.org/2000/svg">
<g id="Isolation_Mode" clip-path="url(#clip0_0_45)">
<path id="Vector" d="M180.973 461.088C179.549 364.106 148.051 74.0445 148.051 74.0445C141.2 10.3555 117.344 1.2609 90.9365 0.0536554V0C90.7888 0 90.641 0.0134139 90.5067 0.0268277C90.359 0.0268277 90.2112 0 90.05 0V0.0536554C63.6556 1.2609 40.9147 13.709 35.112 69.5776C35.112 69.5776 1.45069 364.106 0.0268646 461.088C-1.37009 555.964 61.7885 561.906 90.0635 562.121C90.1709 562.121 90.2784 562.121 90.3858 562.121C90.5739 562.121 90.7619 562.121 90.95 562.121C119.212 561.906 182.37 555.964 180.987 461.088H180.973Z" fill="var(--fill-0, #A2CE57)"/>
<path id="Vector_2" d="M180.973 461.088C179.549 364.106 148.051 74.0445 148.051 74.0445C141.2 10.3555 117.344 1.2609 90.9365 0.0536554V0C90.7888 0 90.641 0.0134139 90.5067 0.0268277C90.359 0.0268277 90.2112 0 90.05 0V0.0536554C63.6556 1.2609 40.9147 13.709 35.112 69.5776C35.112 69.5776 1.45069 364.106 0.0268646 461.088C-1.37009 555.964 61.7885 561.906 90.0635 562.121C90.1709 562.121 90.2784 562.121 90.3858 562.121C90.5739 562.121 90.7619 562.121 90.95 562.121C119.212 561.906 182.37 555.964 180.987 461.088H180.973Z" fill="url(#paint0_linear_0_45)"/>
<path id="Vector_3" d="M141.24 506.963C132.577 506.52 117.452 516.675 112.616 523.838C107.781 530.987 102.179 523.771 98.9959 516.702C95.8125 509.646 98.6467 479.116 96.3632 471.966C95.3289 468.72 91.5679 468.291 91.5679 468.291C91.5679 468.291 87.8203 468.707 86.7725 471.966C84.489 479.116 87.3233 509.646 84.1398 516.702C80.9564 523.771 75.3551 530.987 70.5195 523.838C65.6839 516.688 50.5725 506.52 41.8953 506.963C31.1763 507.513 36.3343 511.309 36.3343 511.309C36.3343 511.309 74.5626 520.699 77.2894 566.306C80.0161 611.913 82.1787 708.493 75.9461 724.589C69.7135 740.686 59.3438 748.976 69.23 751.766C75.1671 753.429 84.798 753.107 91.5679 752.571C98.3377 753.107 107.982 753.443 113.906 751.766C123.792 748.976 113.422 740.686 107.19 724.589C100.957 708.493 103.12 611.913 105.846 566.306C108.573 520.699 146.801 511.309 146.801 511.309C146.801 511.309 151.959 507.5 141.24 506.963Z" fill="var(--fill-0, #7F6857)"/>
<path id="Vector_4" opacity="0.4" d="M180.973 461.088C180.664 440.149 178.958 410.209 176.46 376.138C146.291 314.81 85.8054 271.134 14.574 264.682C7.25343 340.578 0.631317 419.237 0.0268646 461.088C-1.37009 555.964 61.7885 561.906 90.0635 562.121C90.1709 562.121 90.2784 562.121 90.3858 562.121C90.5739 562.121 90.7619 562.121 90.95 562.121C119.212 561.906 182.37 555.964 180.987 461.088H180.973Z" fill="url(#paint1_linear_0_45)"/>
</g>
<defs>
<linearGradient id="paint0_linear_0_45" x1="-15.6083" y1="460.9" x2="233.754" y2="82.328" gradientUnits="userSpaceOnUse">
<stop stop-color="#60BD83" stop-opacity="0"/>
<stop offset="0.15" stop-color="#5DBB80" stop-opacity="0.03"/>
<stop offset="0.32" stop-color="#54B87A" stop-opacity="0.12"/>
<stop offset="0.49" stop-color="#46B26E" stop-opacity="0.27"/>
<stop offset="0.67" stop-color="#31A95F" stop-opacity="0.48"/>
<stop offset="0.85" stop-color="#189F4B" stop-opacity="0.75"/>
<stop offset="1" stop-color="#009539"/>
</linearGradient>
<linearGradient id="paint1_linear_0_45" x1="15.9576" y1="508.479" x2="168.189" y2="277.367" gradientUnits="userSpaceOnUse">
<stop stop-color="#60BD83" stop-opacity="0"/>
<stop offset="0.15" stop-color="#5DBB80" stop-opacity="0.03"/>
<stop offset="0.32" stop-color="#54B87A" stop-opacity="0.12"/>
<stop offset="0.49" stop-color="#46B26E" stop-opacity="0.27"/>
<stop offset="0.67" stop-color="#31A95F" stop-opacity="0.48"/>
<stop offset="0.85" stop-color="#189F4B" stop-opacity="0.75"/>
<stop offset="1" stop-color="#009539"/>
</linearGradient>
<clipPath id="clip0_0_45">
<rect width="181" height="753" fill="white"/>
</clipPath>
</defs>
</svg>
