<svg preserveAspectRatio="none" width="100%" height="100%" overflow="visible" style="display: block;" viewBox="0 0 85.9506 79.1336" fill="none" xmlns="http://www.w3.org/2000/svg">
<path id="Vector" d="M27.0891 79.1336C20.3482 79.1336 12.9818 78.7306 5.00389 77.9384C1.94615 77.6327 -0.277666 74.9087 0.0281075 71.8512C0.333881 68.7937 3.05803 66.5701 6.11577 66.8759C36.582 69.9056 57.0549 66.8759 66.9648 57.9118C72.3992 52.992 74.8315 46.2099 74.8315 35.9534V5.55909C74.8315 2.48769 77.3194 0 80.391 0C83.4627 0 85.9506 2.48769 85.9506 5.55909V35.9534C85.9506 44.431 84.7553 56.8 74.4285 66.1532C64.8383 74.8392 49.2577 79.1336 27.103 79.1336H27.0891Z" fill="var(--fill-0, #7F6857)"/>
</svg>
